<?xml version="1.0" standalone="no"?>
<!DOCTYPE svg PUBLIC "-//W3C//DTD SVG 20010904//EN"
 "http://www.w3.org/TR/2001/REC-SVG-20010904/DTD/svg10.dtd">
<svg version="1.0" xmlns="http://www.w3.org/2000/svg"
 width="1440.000000pt" height="1440.000000pt" viewBox="0 0 1440.000000 1440.000000"
 preserveAspectRatio="xMidYMid meet">
<metadata>
Created by potrace 1.14, written by Peter Selinger 2001-2017
</metadata>
<g transform="translate(0.000000,1440.000000) scale(0.100000,-0.100000)"
fill="#000000" stroke="none">
<path d="M7048 12844 c-3 -2 -25 -7 -49 -10 -174 -23 -358 -93 -528 -203 -99
-64 -123 -83 -216 -176 -118 -117 -199 -231 -265 -370 -94 -200 -131 -377
-126 -605 4 -163 5 -168 37 -296 51 -209 170 -432 307 -576 20 -21 34 -39 31
-41 -2 -2 -55 -18 -118 -35 -307 -87 -565 -275 -748 -547 -107 -160 -190 -382
-208 -560 -4 -33 -8 -73 -10 -90 -2 -16 -4 -577 -4 -1246 l-1 -1216 -75 -37
c-267 -136 -402 -439 -324 -728 56 -207 206 -365 419 -440 70 -25 235 -35 309
-19 156 33 299 123 387 242 124 169 159 377 97 574 -46 147 -178 302 -317 370
l-77 38 3 1271 3 1271 23 72 c104 338 352 576 687 659 63 16 148 17 895 19
454 1 841 -2 860 -6 122 -27 180 -43 227 -65 30 -13 55 -24 58 -24 25 0 198
-131 258 -195 70 -74 182 -257 191 -310 1 -5 4 -14 7 -20 6 -10 17 -51 25 -90
2 -11 8 -42 13 -70 6 -31 10 -527 11 -1281 l0 -1231 -72 -36 c-356 -176 -462
-626 -223 -949 70 -95 202 -186 329 -226 75 -24 291 -22 366 4 258 90 431 321
439 588 3 114 -16 200 -67 306 -51 106 -169 223 -275 274 l-77 37 -1 1222 c0
672 -2 1238 -4 1257 -10 136 -49 295 -102 420 -125 293 -353 534 -641 679 -69
35 -247 97 -300 105 -19 2 -36 7 -39 10 -3 3 16 29 42 58 145 162 244 354 303
588 23 94 26 125 26 290 1 199 -11 281 -61 430 -108 323 -341 598 -646 764
-100 54 -259 110 -372 130 -16 3 -41 9 -55 12 -29 8 -346 15 -352 8z m319
-429 c351 -67 630 -325 722 -666 31 -113 43 -278 27 -358 -3 -14 -8 -42 -11
-61 -9 -55 -45 -159 -81 -232 -220 -450 -780 -641 -1226 -418 -252 126 -429
343 -492 605 -26 108 -26 113 -27 220 0 170 45 339 124 466 12 19 31 50 42 67
10 18 23 32 27 32 4 0 8 5 8 11 0 21 153 160 227 205 197 123 441 171 660 129z
m-1911 -5951 c19 -9 50 -35 69 -56 131 -154 -19 -395 -214 -344 -160 41 -218
233 -107 354 59 66 168 86 252 46z m3680 -2 c173 -89 148 -341 -40 -397 -133
-39 -269 63 -269 205 0 161 167 265 309 192z"/>
<path d="M7055 8737 c-187 -48 -354 -186 -433 -358 -140 -308 -1 -687 306
-831 l62 -30 0 -957 0 -958 -52 -24 c-52 -23 -145 -86 -177 -118 -126 -130
-192 -285 -193 -450 -2 -344 265 -624 607 -636 157 -6 291 37 412 131 345 268
323 783 -43 1029 -28 18 -69 41 -92 50 l-42 17 0 957 0 958 74 37 c262 133
403 438 331 716 -16 61 -71 181 -105 225 -71 95 -195 184 -311 225 -79 28
-265 37 -344 17z m255 -435 c126 -77 139 -255 25 -349 -142 -118 -362 -5 -349
179 7 94 70 170 163 194 61 15 107 8 161 -24z m-25 -3101 c43 -19 101 -78 116
-118 53 -139 -53 -293 -201 -293 -182 0 -280 213 -162 351 64 75 162 99 247
60z"/>
<path d="M0 2694 l0 -1111 253 1 252 1 2 375 c1 206 2 389 2 407 l1 31 406 0
c223 0 408 2 410 5 4 4 5 107 4 390 l0 97 -412 0 -413 0 1 212 1 213 414 2
c228 0 417 2 422 2 4 1 6 110 5 243 l-3 243 -672 0 -673 0 0 -1111z"/>
<path d="M3985 3584 c-78 -24 -296 -89 -345 -103 l-25 -7 -3 -152 -3 -152
-127 0 -127 0 0 -227 0 -228 125 0 125 -1 2 -34 c1 -19 4 -188 6 -375 3 -321
5 -344 26 -410 27 -83 52 -127 100 -178 91 -97 251 -145 466 -141 157 3 180 4
193 12 11 8 16 150 13 387 l-1 41 -87 -2 c-131 -1 -193 18 -221 71 -14 26 -16
74 -17 327 0 290 0 297 20 300 11 2 84 3 163 2 l142 -1 0 26 c1 43 1 353 0
393 l0 38 -162 2 -163 3 0 218 c0 141 -3 217 -10 216 -5 0 -46 -11 -90 -25z"/>
<path d="M8417 3214 c-1 -1 -33 -4 -72 -8 -278 -26 -520 -189 -644 -434 -96
-190 -115 -448 -51 -667 36 -122 150 -295 237 -361 21 -15 40 -31 43 -34 19
-22 127 -80 200 -107 118 -45 221 -61 375 -58 77 1 151 5 165 8 14 4 48 12 75
18 148 35 308 137 405 259 l30 37 -185 107 c-101 58 -191 106 -199 106 -7 0
-16 -6 -19 -14 -7 -18 -140 -84 -187 -92 -55 -10 -183 -7 -231 6 -57 15 -106
37 -146 67 -33 26 -93 108 -93 128 0 9 138 12 551 11 303 -1 555 2 561 5 19
12 27 92 24 219 -8 259 -111 477 -298 630 -105 86 -269 154 -398 166 -65 6
-140 11 -143 8z m184 -451 c64 -29 123 -85 153 -146 14 -28 26 -56 26 -63 0
-9 -83 -12 -335 -12 -244 0 -335 3 -335 12 1 23 38 94 69 129 70 80 147 108
281 104 70 -2 107 -9 141 -24z"/>
<path d="M10364 3209 c-84 -10 -156 -33 -223 -70 -31 -18 -58 -34 -61 -38 -3
-3 -21 -21 -41 -39 l-35 -33 1 71 1 70 -237 0 c-149 0 -239 -4 -241 -10 -1 -5
-2 -362 0 -793 l2 -784 235 0 c207 0 235 2 236 16 1 9 2 221 3 471 2 331 6
467 15 500 40 141 145 214 297 204 114 -7 187 -55 232 -153 l26 -56 1 -488 c0
-424 2 -488 15 -491 8 -2 115 -4 238 -3 l223 0 -2 546 c-1 533 -2 548 -24 631
-26 100 -47 150 -85 205 -129 186 -333 272 -576 244z"/>
<path d="M11938 3215 c-2 -1 -32 -5 -68 -8 -77 -7 -105 -12 -168 -33 -140 -47
-261 -146 -312 -257 -40 -85 -43 -95 -46 -211 -4 -177 52 -282 203 -382 68
-44 162 -81 343 -135 159 -47 214 -75 224 -113 17 -67 -51 -110 -172 -108
-116 2 -188 41 -240 132 -14 25 -26 46 -27 48 -3 5 -400 -227 -403 -236 -1 -5
15 -35 37 -68 143 -212 350 -306 661 -299 74 2 144 5 155 8 11 3 43 11 70 17
196 48 349 183 395 350 32 114 16 275 -37 371 -31 58 -140 169 -165 169 -6 0
-22 8 -36 18 -34 24 -176 75 -284 103 -121 30 -188 56 -215 81 -25 24 -30 65
-10 90 31 41 125 53 203 27 34 -11 76 -46 110 -93 l20 -28 202 108 201 108
-17 30 c-30 53 -155 171 -221 210 -84 49 -191 84 -277 91 -38 4 -81 8 -96 10
-15 2 -28 2 -30 0z"/>
<path d="M13510 3209 c-187 -22 -293 -60 -425 -154 -167 -118 -292 -323 -321
-526 -10 -68 -11 -228 -1 -295 15 -109 71 -253 134 -345 51 -73 159 -173 242
-222 43 -26 83 -47 88 -47 6 0 23 -7 39 -14 81 -41 211 -61 384 -61 191 1 332
40 470 129 90 59 214 187 193 199 -5 3 -24 14 -43 24 -19 11 -99 57 -177 102
-77 44 -144 81 -147 81 -3 0 -28 -16 -54 -34 -64 -46 -94 -58 -193 -75 -116
-19 -262 13 -345 76 -33 25 -77 84 -88 119 l-6 21 556 -1 c465 -1 558 1 567
13 14 16 17 268 4 343 -42 258 -210 485 -440 593 -135 64 -293 91 -437 74z
m231 -446 c82 -37 143 -105 179 -197 l8 -23 -339 -1 c-269 0 -339 2 -339 12 0
21 49 109 78 139 35 36 83 66 135 83 63 21 220 13 278 -13z"/>
<path d="M7370 3184 c-134 -35 -247 -120 -302 -226 -15 -29 -28 -46 -29 -38 0
8 -1 67 -2 130 l-2 115 -236 3 -237 2 2 -792 1 -793 235 0 235 0 2 368 c0 202
4 390 7 418 22 182 201 310 415 297 l56 -3 -2 255 c0 140 -1 261 -2 268 -1 16
-71 15 -141 -4z"/>
<path d="M1613 2618 c2 -304 7 -564 10 -578 3 -14 8 -36 11 -50 22 -103 101
-237 181 -306 108 -93 217 -135 366 -139 181 -5 336 44 433 138 l47 46 -2 -62
c-1 -34 -1 -67 0 -72 1 -11 470 -16 472 -5 4 16 4 1557 1 1568 -3 9 -60 12
-238 12 -216 0 -234 -1 -235 -17 0 -10 0 -215 -1 -455 0 -241 -5 -461 -10
-490 -24 -130 -105 -208 -235 -226 -151 -20 -268 46 -308 176 -16 50 -18 106
-18 534 l-1 478 -238 0 -239 0 4 -552z"/>
<path d="M4692 2613 c4 -620 4 -613 75 -760 64 -132 170 -224 321 -281 99 -37
297 -37 412 0 69 22 147 67 192 112 l47 46 -1 -48 c0 -26 1 -58 1 -72 l1 -26
235 0 c230 0 235 1 236 21 5 78 3 1549 -2 1556 -3 5 -103 8 -238 7 l-233 -3
-2 -475 c-2 -261 -6 -488 -10 -504 -11 -46 -42 -100 -77 -134 -115 -112 -343
-95 -431 33 -49 72 -51 103 -51 613 l0 472 -239 0 -239 0 3 -557z"/>
</g>
</svg>
