<svg xmlns="http://www.w3.org/2000/svg" width="110.827" height="46.362" viewBox="0 0 110.827 46.362"><defs><style>.a{fill:#202020;}</style></defs><g transform="translate(-122.323 -74.054)"><g transform="translate(154.426 91.023)"><path class="a" d="M2.774,681.068v2.341H7.283v2.671H2.774v4.456H0V678.4H7.369v2.668Z" transform="translate(0 -678.4)"/><path class="a" d="M129.189,726v8.668h-2.6v-.815a2.965,2.965,0,0,1-2.478,1.058c-1.749,0-3.242-1.249-3.242-3.589V726h2.6v4.942a1.43,1.43,0,0,0,1.509,1.577c.953,0,1.612-.555,1.612-1.786V726Z" transform="translate(-112.06 -722.53)"/><path class="a" d="M255.7,697.613v3.069c0,.746.641.815,1.786.746v2.358c-3.4.347-4.387-.676-4.387-3.1v-3.069H251.71v-2.5h1.385v-1.647l2.6-.781v2.428h1.786v2.5Z" transform="translate(-233.362 -691.648)"/><path class="a" d="M360.161,726v8.668h-2.6v-.815a2.964,2.964,0,0,1-2.478,1.058c-1.749,0-3.243-1.249-3.243-3.589V726h2.6v4.942a1.43,1.43,0,0,0,1.509,1.577c.953,0,1.612-.555,1.612-1.786V726Z" transform="translate(-326.194 -722.53)"/><path class="a" d="M497.382,723.6v2.945a2.05,2.05,0,0,0-2.6,1.977v3.919h-2.6v-8.665h2.6v1.543A2.6,2.6,0,0,1,497.382,723.6Z" transform="translate(-456.304 -720.305)"/><path class="a" d="M575.528,729.519a2.273,2.273,0,0,0,1.664-.656l2.081,1.2a4.4,4.4,0,0,1-3.78,1.786,4.58,4.58,0,1,1-.191-9.155,4.377,4.377,0,0,1,4.4,4.578,5.042,5.042,0,0,1-.1,1.037h-6.159A1.974,1.974,0,0,0,575.528,729.519Zm1.595-3.156a1.953,1.953,0,0,0-3.728,0Z" transform="translate(-529.091 -719.462)"/><path class="a" d="M722.933,726.258v5.321h-2.6v-4.942a1.43,1.43,0,0,0-1.509-1.577c-.953,0-1.612.555-1.612,1.786v4.734h-2.6v-8.666h2.6v.815a2.965,2.965,0,0,1,2.478-1.058C721.441,722.668,722.933,723.917,722.933,726.258Z" transform="translate(-662.521 -719.443)"/><path class="a" d="M852.3,728.925c0,1.994-1.733,2.843-3.607,2.843a3.791,3.791,0,0,1-3.728-2.064l2.254-1.283a1.426,1.426,0,0,0,1.474,1.021c.625,0,.937-.191.937-.538,0-.953-4.266-.451-4.266-3.451,0-1.89,1.595-2.843,3.4-2.843a3.793,3.793,0,0,1,3.381,1.855l-2.22,1.2a1.258,1.258,0,0,0-1.161-.763c-.451,0-.729.174-.729.485C848.039,726.376,852.3,725.717,852.3,728.925Z" transform="translate(-783.378 -719.387)"/><path class="a" d="M961.138,729.519a2.276,2.276,0,0,0,1.665-.656l2.08,1.2a4.4,4.4,0,0,1-3.78,1.786,4.58,4.58,0,1,1-.19-9.155,4.377,4.377,0,0,1,4.4,4.578,5.055,5.055,0,0,1-.1,1.04h-6.156A1.975,1.975,0,0,0,961.138,729.519Zm1.595-3.156a1.953,1.953,0,0,0-3.728,0Z" transform="translate(-886.593 -719.462)"/></g><g transform="translate(122.323 74.054)"><path class="a" d="M497.07,324.533V314.049a3.465,3.465,0,1,0-2.287,0h0v10.484h0a3.465,3.465,0,1,0,2.287,0Zm-2.323-13.754a1.179,1.179,0,1,1,1.179,1.179A1.179,1.179,0,0,1,494.746,310.779Zm1.179,18.2a1.179,1.179,0,1,1,1.179-1.179A1.179,1.179,0,0,1,495.926,328.981Z" transform="translate(-482.403 -284.906)"/><path class="a" d="M379.206,32.625V19.606a7.307,7.307,0,0,0-6-7.179,7.333,7.333,0,1,0-10.4,0,7.306,7.306,0,0,0-6,7.179V32.625a3.464,3.464,0,1,0,2.285,0V19.606A5.015,5.015,0,0,1,364.1,14.6h7.815a5.014,5.014,0,0,1,5.009,5.009V32.625a3.463,3.463,0,1,0,2.286,0Zm-20.083,3.269a1.179,1.179,0,1,1-1.179-1.179,1.179,1.179,0,0,1,1.179,1.179ZM368,12.312a5.048,5.048,0,1,1,5.049-5.048A5.048,5.048,0,0,1,368,12.312Zm10.059,24.761a1.179,1.179,0,1,1,1.178-1.178,1.179,1.179,0,0,1-1.178,1.178Z" transform="translate(-354.481 0.074)"/></g></g></svg>