<svg xmlns="http://www.w3.org/2000/svg" width="694.259" height="631.864" viewBox="0 0 694.259 631.864"><defs><style>.a{fill:#f3f3f3}.b{fill:#fdba2f}.c{fill:#81d0d3}.d,.g,.l,.n,.q,.r,.s,.t,.u{fill:none;stroke-width:4px}.d,.l,.n{stroke:#a15842}.d,.g,.n,.q,.s,.t,.u{stroke-miterlimit:10}.e{fill:#202020}.f{fill:#30242a}.g,.r,.u{stroke:#30242a}.g,.l,.n,.q,.r,.t{stroke-linecap:round}.h{fill:#ff7235}.i{fill:#f5ebdd}.j{fill:#4856df}.k{fill:#ffb7d5}.l,.r{stroke-linejoin:round}.m{fill:#eaa58b}.o{fill:#a15842}.p{fill:#eaa58a}.q{stroke:#eaa58b}.s{stroke:#81d0d3}.t{stroke:#77cacc}.v{fill:#528e90}</style></defs><g><g transform="translate(-1042.741 -175) translate(870.097 -468.318)"><ellipse cx="4.5" cy="5" class="a" rx="4.5" ry="5" transform="translate(200.903 643.318)"/><circle cx="5" cy="5" r="5" class="a" transform="translate(220.903 643.318)"/><ellipse cx="4.5" cy="5" class="a" rx="4.5" ry="5" transform="translate(242.903 643.318)"/><ellipse cx="4.5" cy="5" class="a" rx="4.5" ry="5" transform="translate(263.903 643.318)"/><ellipse cx="4.5" cy="5" class="a" rx="4.5" ry="5" transform="translate(285.903 643.318)"/><ellipse cx="4.5" cy="5" class="a" rx="4.5" ry="5" transform="translate(305.903 643.318)"/><ellipse cx="4.5" cy="5" class="a" rx="4.5" ry="5" transform="translate(327.903 643.318)"/><ellipse cx="4.5" cy="5" class="a" rx="4.5" ry="5" transform="translate(348.903 643.318)"/><circle cx="5" cy="5" r="5" class="a" transform="translate(369.903 643.318)"/><ellipse cx="4.5" cy="5" class="a" rx="4.5" ry="5" transform="translate(390.903 643.318)"/><circle cx="4.5" cy="4.5" r="4.5" class="a" transform="translate(200.903 664.318)"/><ellipse cx="5" cy="4.5" class="a" rx="5" ry="4.5" transform="translate(220.903 664.318)"/><circle cx="4.5" cy="4.5" r="4.5" class="a" transform="translate(242.903 664.318)"/><circle cx="4.5" cy="4.5" r="4.5" class="a" transform="translate(263.903 664.318)"/><circle cx="4.5" cy="4.5" r="4.5" class="a" transform="translate(285.903 664.318)"/><circle cx="4.5" cy="4.5" r="4.5" class="a" transform="translate(305.903 664.318)"/><circle cx="4.5" cy="4.5" r="4.5" class="a" transform="translate(327.903 664.318)"/><circle cx="4.5" cy="4.5" r="4.5" class="a" transform="translate(348.903 664.318)"/><ellipse cx="5" cy="4.5" class="a" rx="5" ry="4.5" transform="translate(369.903 664.318)"/><circle cx="4.5" cy="4.5" r="4.5" class="a" transform="translate(390.903 664.318)"/><circle cx="4.5" cy="4.5" r="4.5" class="a" transform="translate(200.903 686.318)"/><ellipse cx="5" cy="4.5" class="a" rx="5" ry="4.5" transform="translate(220.903 686.318)"/><circle cx="4.5" cy="4.5" r="4.5" class="a" transform="translate(242.903 686.318)"/><circle cx="4.5" cy="4.5" r="4.5" class="a" transform="translate(263.903 686.318)"/><circle cx="4.5" cy="4.5" r="4.5" class="a" transform="translate(285.903 686.318)"/><circle cx="4.5" cy="4.5" r="4.5" class="b" transform="translate(305.903 686.318)"/><circle cx="4.5" cy="4.5" r="4.5" class="a" transform="translate(327.903 686.318)"/><circle cx="4.5" cy="4.5" r="4.5" class="a" transform="translate(348.903 686.318)"/><ellipse cx="5" cy="4.5" class="a" rx="5" ry="4.5" transform="translate(369.903 686.318)"/><circle cx="4.5" cy="4.5" r="4.5" class="a" transform="translate(390.903 686.318)"/><ellipse cx="4.5" cy="5" class="a" rx="4.5" ry="5" transform="translate(200.903 706.318)"/><circle cx="5" cy="5" r="5" class="a" transform="translate(220.903 706.318)"/><ellipse cx="4.5" cy="5" class="a" rx="4.5" ry="5" transform="translate(242.903 706.318)"/><ellipse cx="4.5" cy="5" class="a" rx="4.5" ry="5" transform="translate(263.903 706.318)"/><ellipse cx="4.5" cy="5" class="b" rx="4.5" ry="5" transform="translate(285.903 706.318)"/><ellipse cx="4.5" cy="5" class="a" rx="4.5" ry="5" transform="translate(305.903 706.318)"/><ellipse cx="4.5" cy="5" class="b" rx="4.5" ry="5" transform="translate(327.903 706.318)"/><ellipse cx="4.5" cy="5" class="a" rx="4.5" ry="5" transform="translate(348.903 706.318)"/><circle cx="5" cy="5" r="5" class="a" transform="translate(369.903 706.318)"/><ellipse cx="4.5" cy="5" class="a" rx="4.5" ry="5" transform="translate(390.903 706.318)"/><ellipse cx="4.5" cy="5" class="a" rx="4.5" ry="5" transform="translate(200.903 728.318)"/><circle cx="5" cy="5" r="5" class="a" transform="translate(220.903 728.318)"/><ellipse cx="4.5" cy="5" class="a" rx="4.5" ry="5" transform="translate(242.903 728.318)"/><ellipse cx="4.5" cy="5" class="b" rx="4.5" ry="5" transform="translate(263.903 728.318)"/><ellipse cx="4.5" cy="5" class="a" rx="4.5" ry="5" transform="translate(285.903 728.318)"/><ellipse cx="4.5" cy="5" class="b" rx="4.5" ry="5" transform="translate(305.903 728.318)"/><ellipse cx="4.5" cy="5" class="a" rx="4.5" ry="5" transform="translate(327.903 728.318)"/><ellipse cx="4.5" cy="5" class="a" rx="4.5" ry="5" transform="translate(348.903 728.318)"/><circle cx="5" cy="5" r="5" class="a" transform="translate(369.903 728.318)"/><ellipse cx="4.5" cy="5" class="a" rx="4.5" ry="5" transform="translate(390.903 728.318)"/><ellipse cx="4.5" cy="5" class="a" rx="4.5" ry="5" transform="translate(200.903 750.318)"/><circle cx="5" cy="5" r="5" class="a" transform="translate(220.903 750.318)"/><ellipse cx="4.5" cy="5" class="a" rx="4.5" ry="5" transform="translate(242.903 750.318)"/><ellipse cx="4.5" cy="5" class="c" rx="4.5" ry="5" transform="translate(263.903 750.318)"/><ellipse cx="4.5" cy="5" class="b" rx="4.5" ry="5" transform="translate(285.903 750.318)"/><ellipse cx="4.5" cy="5" class="a" rx="4.5" ry="5" transform="translate(305.903 750.318)"/><ellipse cx="4.5" cy="5" class="a" rx="4.5" ry="5" transform="translate(327.903 750.318)"/><ellipse cx="4.5" cy="5" class="a" rx="4.5" ry="5" transform="translate(348.903 750.318)"/><circle cx="5" cy="5" r="5" class="a" transform="translate(369.903 750.318)"/><ellipse cx="4.5" cy="5" class="a" rx="4.5" ry="5" transform="translate(390.903 750.318)"/><circle cx="4.5" cy="4.5" r="4.5" class="a" transform="translate(200.903 771.318)"/><ellipse cx="5" cy="4.5" class="a" rx="5" ry="4.5" transform="translate(220.903 771.318)"/><circle cx="4.5" cy="4.5" r="4.5" class="a" transform="translate(242.903 771.318)"/><circle cx="4.5" cy="4.5" r="4.5" class="a" transform="translate(263.903 771.318)"/><circle cx="4.5" cy="4.5" r="4.5" class="a" transform="translate(285.903 771.318)"/><circle cx="4.5" cy="4.5" r="4.5" class="a" transform="translate(305.903 771.318)"/><circle cx="4.5" cy="4.5" r="4.5" class="a" transform="translate(327.903 771.318)"/><circle cx="4.5" cy="4.5" r="4.5" class="a" transform="translate(348.903 771.318)"/><ellipse cx="5" cy="4.5" class="a" rx="5" ry="4.5" transform="translate(369.903 771.318)"/><circle cx="4.5" cy="4.5" r="4.5" class="a" transform="translate(390.903 771.318)"/><circle cx="4.5" cy="4.5" r="4.5" class="a" transform="translate(200.903 793.318)"/><ellipse cx="5" cy="4.5" class="a" rx="5" ry="4.5" transform="translate(220.903 793.318)"/><circle cx="4.5" cy="4.5" r="4.5" class="a" transform="translate(242.903 793.318)"/><circle cx="4.5" cy="4.5" r="4.5" class="a" transform="translate(263.903 793.318)"/><circle cx="4.5" cy="4.5" r="4.5" class="a" transform="translate(285.903 793.318)"/><circle cx="4.5" cy="4.5" r="4.5" class="a" transform="translate(305.903 793.318)"/><circle cx="4.5" cy="4.5" r="4.5" class="a" transform="translate(327.903 793.318)"/><circle cx="4.5" cy="4.5" r="4.5" class="a" transform="translate(348.903 793.318)"/><ellipse cx="5" cy="4.5" class="a" rx="5" ry="4.5" transform="translate(369.903 793.318)"/><circle cx="4.5" cy="4.5" r="4.5" class="a" transform="translate(390.903 793.318)"/><ellipse cx="4.5" cy="5" class="a" rx="4.5" ry="5" transform="translate(200.903 813.318)"/><circle cx="5" cy="5" r="5" class="a" transform="translate(220.903 813.318)"/><ellipse cx="4.5" cy="5" class="a" rx="4.5" ry="5" transform="translate(242.903 813.318)"/><ellipse cx="4.5" cy="5" class="a" rx="4.5" ry="5" transform="translate(263.903 813.318)"/><ellipse cx="4.5" cy="5" class="a" rx="4.5" ry="5" transform="translate(285.903 813.318)"/><ellipse cx="4.5" cy="5" class="a" rx="4.5" ry="5" transform="translate(305.903 813.318)"/><ellipse cx="4.5" cy="5" class="a" rx="4.5" ry="5" transform="translate(327.903 813.318)"/><ellipse cx="4.5" cy="5" class="a" rx="4.5" ry="5" transform="translate(348.903 813.318)"/><circle cx="5" cy="5" r="5" class="a" transform="translate(369.903 813.318)"/><ellipse cx="4.5" cy="5" class="a" rx="4.5" ry="5" transform="translate(390.903 813.318)"/></g><g transform="translate(-1042.741 -175) translate(784.961 109.562)"><rect width="15.124" height="257.06" class="b" transform="translate(367.599 438.79)"/><line x1="15.131" class="d" transform="translate(367.599 442.325)"/><path d="M312.408,915.818a22.422,22.422,0,0,1,42.344,0,22.422,22.422,0,0,1,19.934-15.007,55.856,55.856,0,0,0-7.033-9.853l-8.141-9.157a18.548,18.548,0,0,1-2.463-21.141l6.91-12.84h0c-1.94,1.952-13.154,12.452-30.175,12.452s-28.235-10.5-30.175-12.452h-.031l6.916,12.84a18.536,18.536,0,0,1-2.537,21.141l-8.135,9.12a56.1,56.1,0,0,0-7.051,9.853A22.428,22.428,0,0,1,312.408,915.818Z" class="e" transform="translate(-13.442 -271.549)"/><path d="M371.471,979.307A22.421,22.421,0,0,0,350.3,994.354a22.416,22.416,0,0,0-42.344,0,22.434,22.434,0,0,0-26.776-14.341,55.774,55.774,0,0,0,16.011,37.9h64.162A55.774,55.774,0,0,0,377.364,980.1,22.3,22.3,0,0,0,371.471,979.307Z" class="e" transform="translate(-8.99 -322.062)"/><path d="M340.465,860.312c17.021,0,28.235-10.5,30.175-12.452H310.29C312.23,849.794,323.444,860.312,340.465,860.312Z" class="f" transform="translate(-20.173 -271.564)"/><path d="M307.954,976.883a22.416,22.416,0,0,1,42.344,0,22.416,22.416,0,0,1,27.1-14.256,55.855,55.855,0,0,0-7.15-28.777,22.422,22.422,0,0,0-19.934,15.007,22.422,22.422,0,0,0-42.344,0,22.428,22.428,0,0,0-19.638-14.989,55.842,55.842,0,0,0-7.137,28.672,22.434,22.434,0,0,1,26.776,14.342Z" class="c" transform="translate(-8.988 -304.588)"/><path d="M366.55,831.746c1.232-7.538,6.829-37.417,20.907-53.656" class="g" transform="translate(-41.788 -244.76)"/><path d="M350.18,818.365c-.092-8.56-.973-50.589-9.33-75.665" class="g" transform="translate(-31.914 -231.163)"/><ellipse cx="24.417" cy="5.493" class="f" rx="24.417" ry="5.493" transform="translate(328.532 557.57) rotate(-23.75)"/><ellipse cx="13.511" cy="4.711" class="f" rx="13.511" ry="4.711" transform="translate(339.687 486.65) rotate(-53.51)"/><ellipse cx="29.467" cy="5.204" class="f" rx="29.467" ry="5.204" transform="translate(257.78 556.175) rotate(-8.6)"/><path d="M283.812,756.58v.043a10.894,10.894,0,0,1-8.892,19.8v.037c13.486,6.06,26.425,6.522,28.888,1.035S297.3,762.64,283.812,756.58Z" class="h" transform="translate(-6.585 -236.496)"/><path d="M331.4,683.776c-2.87-.745-6.6,3.6-9.33,10.315-3.282-8.16-8.043-13.622-11.251-12.563s-3.781,8.277-1.558,16.787c-6.2-3.769-11.774-5.037-13.64-2.728-2.377,2.944,2.2,10.58,10.235,17.064a46.013,46.013,0,0,0,7.341,4.89,10.888,10.888,0,0,1,17.274-5.912,46.192,46.192,0,0,0,2.87-8.055C335.93,693.592,335.061,684.724,331.4,683.776Z" class="h" transform="translate(-14.296 -207.612)"/><path d="M431.82,743.81c-.887-2.833-6.546-3.695-13.69-2.463,5.185-7.1,7.3-14.028,4.711-16.19s-9.028,1.17-15.075,7.556c-.074-7.254-1.952-12.661-4.9-13.025-3.75-.462-7.815,7.47-9.071,17.7a46.126,46.126,0,0,0-.271,8.825,10.888,10.888,0,0,1,14.164,11.534,46.72,46.72,0,0,0,8.357-1.848C425.884,752.844,432.947,747.418,431.82,743.81Z" class="h" transform="translate(-52.115 -222.315)"/><path d="M403.886,764.425a10.875,10.875,0,0,0-10.3-2c.351,4.871,1.583,8.621,3.436,9.982,1.73,1.6,5.733,2.137,10.715,1.552a10.869,10.869,0,0,0-3.855-9.533Z" class="f" transform="translate(-52.176 -238.54)"/><path d="M331.693,727.276a10.882,10.882,0,0,0-7.143,7.679c4.311,2.279,8.141,3.2,10.3,2.365,2.272-.616,4.84-3.738,6.977-8.277A10.869,10.869,0,0,0,331.693,727.276Z" class="f" transform="translate(-25.652 -225.025)"/><path d="M285,774.9a5.29,5.29,0,0,1,4.341-9.607,10.881,10.881,0,0,0-5.542-8.621l-8.911,19.786A10.894,10.894,0,0,0,285,774.9Z" class="i" transform="translate(-6.573 -236.53)"/><path d="M287.345,773.281a5.29,5.29,0,0,0,2.266,6.774,10.857,10.857,0,0,0,4.341-9.607A5.29,5.29,0,0,0,287.345,773.281Z" class="j" transform="translate(-11.183 -241.706)"/><path d="M850.781,690.386H694.16l2.648-10.506h68.75l26.221-102.546A64.919,64.919,0,0,1,854.673,528.5h0a54.029,54.029,0,0,1,52.344,67.432l-16.2,63.361a41.333,41.333,0,0,1-40.034,31.093Z" class="k" transform="translate(-167.65 -148.871)"/><rect width="11.122" height="99.818" class="c" transform="translate(527.723 649.683) rotate(-90)"/><path d="M802.085,935.889,776.122,781.35H695.339L669.376,935.889a5.13,5.13,0,0,0,5.062,5.973h0a5.136,5.136,0,0,0,5.013-4.04L713.457,781.35h44.573l33.993,156.473a5.13,5.13,0,0,0,5.013,4.04h0a5.13,5.13,0,0,0,5.05-5.973Z" class="c" transform="translate(-158.102 -246.012)"/><rect width="11.122" height="99.818" class="c" transform="translate(610.415 649.683) rotate(-90)"/><path d="M936.369,935.889,910.381,781.35H829.629L803.667,935.889a5.13,5.13,0,0,0,5.062,5.973h0a5.123,5.123,0,0,0,5.006-4.039L847.728,781.35h44.579L926.3,937.823a5.13,5.13,0,0,0,5.019,4.04h0a5.13,5.13,0,0,0,5.05-5.973Z" class="c" transform="translate(-209.694 -246.012)"/><path d="M812.735,716.729l9.9-38.729H757.01a57.954,57.954,0,0,0-56.144,43.586l-6.707,26.235H772.7a41.332,41.332,0,0,0,40.039-31.088Z" class="k" transform="translate(-167.65 -206.307)"/><line x2="83.32" class="l" transform="translate(530.778 529.98)"/><line x2="14.601" y1="57.086" class="l" transform="translate(598.203 472.506)"/><line x1="39.412" class="l" transform="translate(692.682 470.369)"/><line x1="50.497" class="l" transform="translate(688.987 442.658)"/><path d="M613.4,610.515s-49.407,13.456-70.394,23.955c-34.6,17.3-34.486,28.716-55.584,92.631-19.478,59.069-21.621,87.7-48.489,88.831-20.513.862-27.238,7.575-30.563,16.775l81.171,38.513a4.034,4.034,0,0,0,5.265-1.712h0a4.034,4.034,0,0,0-1.521-5.419l-1.706-.985c7.544-9.139,22.1-28.611,36.6-58.188l9.237,4.311s14.921-19.392,17.286-41.389c3.079-28.408,1.232-47.553,14.207-58.669L720.219,610.49Z" class="h" transform="translate(-57.854 -180.37)"/><path d="M445.05,938.123c1.607-3.344,10.537-23.715,15.672-21.252,6.682,3.2-10.66,23.654-10.66,23.654Z" class="f" transform="translate(-71.946 -297.998)"/><path d="M408.36,961.429l81.171,38.507a4.027,4.027,0,0,0,3.744-7.125l-1.706-.985.172-.209-55.793-26.338a34.6,34.6,0,0,0,1.749-7.156c8.35,1.447,25.248,3.005,25.335-3.96.092-6.491-18.364-3.886-25.107-2.051a27.5,27.5,0,0,0-1.441-7.322C417.881,946.071,411.55,952.6,408.36,961.429Z" class="f" transform="translate(-57.85 -308.803)"/><path d="M617.549,644.732c-3.886,1.94-7.328,3.806-10.413,5.678L602.4,665.577l18.228-12.84,16.806,13.4-6.2-18.37,19.035-8.72L635.562,637.2a183.22,183.22,0,0,0-18.013,7.531Z" class="k" transform="translate(-132.397 -190.632)"/><path d="M713.442,636.61l-1.232,8.024,8.03-3.085Z" class="k" transform="translate(-174.585 -190.405)"/><path d="M617.808,701.79l-11.731,15.438L589.4,709.2l9.878,16.67L583.84,738.844l19.761-2.469,6.8,22.853,6.792-22.853,21.615-6.177-21-8.646Z" class="k" transform="translate(-125.267 -215.446)"/><path d="M523.344,872.537l1.441-4.114,19.706-1.047-16.011-10.9,7.131-17.077-16.128,10.752-3.079-3.325c-2.463,8.11-4.643,15.334-6.774,21.683h.1c.234-.7.468-1.4.7-2.112Z" class="k" transform="translate(-96.757 -268.314)"/><path d="M501.661,889.4l-12.932-6.115c-.234.714-.468,1.416-.7,2.112-7.815,23.278-14.934,34.917-31.862,35.631-.831,0-1.632.08-2.42.135a27.5,27.5,0,0,1,1.441,7.322c6.774-1.847,25.2-4.44,25.107,2.051-.1,6.965-16.984,5.407-25.335,3.96a34.6,34.6,0,0,1-1.767,7.156l55.793,26.339c7.587-9.237,22.015-28.611,36.413-57.942Z" class="m" transform="translate(-75.073 -285.172)"/><path d="M599.98,817.12,598.132,833.8l-17.292-.616L595.663,844.3l-5.542,19.762,14.835-12.975,13.332,8.892q.554-1.767,1.016-3.578l-5.111-12.729L622.112,835c.129-1.614.253-3.2.37-4.748l-13.831,2.309Z" class="k" transform="translate(-124.114 -259.754)"/><path d="M546.2,760.83c-1.558,4.816-3.233,10.044-5.081,15.728l16.43,1Z" class="k" transform="translate(-108.855 -238.129)"/><path d="M643.58,989.2c.259-3.7,1.065-25.926,6.743-25.526,7.39.517-1.2,25.914-1.2,25.914Z" class="f" transform="translate(-148.218 -316.057)"/><path d="M770.336,612s-61.76,11.454-95.729,25.655c-34.295,14.342-33.962,39.813-27.792,109,5.542,61.939,15.445,92.015-4.926,101.277-18.684,8.5-25.175,19.152-24.288,28.894h91.972a3.947,3.947,0,0,0,3.947-3.947h0a3.947,3.947,0,0,0-3.947-3.947h-1.552c2.9-9.49,7.107-28.014,7.685-58.669h11.4s5.863-27.1-.616-51.261c-6.774-25.316-12.969-29.639-16.67-46.931h55.343c42.263,0,73.9-39.092,64.7-80.339-2.87-12.889-7.033-19.706-7.033-19.706Z" class="h" transform="translate(-138.207 -180.951)"/><path d="M783.455,670.7l-11.337,14.262L754.462,678.9l10.463,17.126-13.585,18.53,17.908-7.414,9.982,18.4,1.133-20.254,17.292-3.7-14.816-9.268Z" class="k" transform="translate(-189.618 -203.502)"/><path d="M761.486,849.48l10.469,17.126-13.585,18.53,17.908-7.39,6.639,12.236c.973-9.508,1.453-23.573-1.65-37.078l-2.118,2.666Z" class="k" transform="translate(-192.318 -272.186)"/><path d="M682.015,907.678l-.794-9.545,20.051-7.735-18.979-3.935,2.094-20.833L672.07,881.746l-.369-.154c1.182,9.945,2.217,18.635,2.8,26.154v-.068Z" class="k" transform="translate(-159.021 -278.391)"/><path d="M709.558,992.579h-1.552c2.9-9.49,7.107-28.013,7.685-58.669H653.648v.055c.049.616.092,1.232.135,1.848v.172c1.287,19.244-.813,30.5-11.935,35.557-18.684,8.5-25.175,19.152-24.288,28.894h92a3.947,3.947,0,0,0,0-7.895Z" class="m" transform="translate(-138.192 -304.623)"/><path d="M873.543,614.59,845.172,617.1l2.956,11.405-18.148,9.681,22.607,3.024,7.648,16.941,7.864-17.545,22.995-3.633-19.971-10.284Z" class="k" transform="translate(-219.83 -181.946)"/><path d="M673.933,716.78l6.774-21.615,19.762,3.079L685.03,684.659l11.085-12.969-20.377,7.39-3.258-5.585c-5.241,5.937-8.406,13.308-10.1,22.785l3.473.111Z" class="k" transform="translate(-155.441 -203.882)"/><path d="M759.282,634.8c-4.169,1.158-8.32,2.371-12.372,3.621l16.325,11.085Z" class="k" transform="translate(-187.916 -189.71)"/><path d="M705.154,785.888l-8.646-17.908-4.323,19.762L676.13,786.51l14.817,12.969-9.262,21.615,16.079-14.989L711.09,821.47l-4.083-23.229,13.585-17.908Z" class="k" transform="translate(-160.723 -240.876)"/><path d="M645.976,1007.354c8.166-2.254,24.1-8.055,21.221-14.392-2.685-5.912-18.265,4.311-23.58,8.862a27.213,27.213,0,0,0-5.08-6.639c-16.122,8.209-21.781,18.148-20.938,27.287h91.972a3.947,3.947,0,0,0,3.947-3.947h0a3.947,3.947,0,0,0-3.947-3.947H647.436A35,35,0,0,0,645.976,1007.354Z" class="f" transform="translate(-138.206 -326.621)"/><line x1="15.9" y1=".222" class="n" transform="translate(555.466 532.259)"/><path d="M737.284,630.42c-16.473,4.2-34.079,9.354-47.418,14.921-28.451,11.916-33.063,31.474-30.3,77.34" class="n" transform="translate(-154.094 -188.027)"/><rect width="15.124" height="257.06" class="b" transform="translate(777.123 438.79)"/><line x1="15.124" class="d" transform="translate(777.123 442.325)"/><path d="M751.272,310.612c-8.621-1.232-28.371,8.036-29.023,26.357s15.7,24.208,18.321,25.519l37.953-5.893,2.617-41.876Z" class="o" transform="translate(-178.434 -65.121)"/><circle cx="29.498" cy="29.498" r="29.498" class="o" transform="translate(610.39 141)"/><path d="M833.049,203.067c1.8.831-13.345-35.1-21.073-29.5C804.7,178.859,823.917,198.855,833.049,203.067Z" class="f" transform="translate(-212.295 -12.285)"/><path d="M848.521,212.466c1.65,1.971,40.287-11.547,34.941-19.343C878.351,185.622,846.871,210.489,848.521,212.466Z" class="f" transform="translate(-226.929 -19.485)"/><path d="M783.129,318.314s25.938-21.615,9.237-45.7c-10.629-15.352-39.529-9.237-39.529-9.237.7-8.431,2.993-32.718-15.272-46.063s-41.438-6.318-49.881,4.212-6.318,30.206-9.126,44.253-.936,23.6,7.722,28.094c7.876,4.089,17.144,1.62,17.144,1.62l-.985,14.823s-17.859.671-28.8,4.631c-26.369,9.545-72.7,75.006-72.7,75.006-29.023-1.232-56.2-2.463-56.2-2.463l14.207,42s35.816,11.731,61.754,4.927c26.314-6.891,51.261-43.846,51.261-43.846l8.621,24.7L665.76,456.645H794.835L773.22,418.354C776.958,384.4,783.129,318.314,783.129,318.314Z" class="m" transform="translate(-110.245 -26.507)"/><path d="M741.653,370.4l-33.87,61.415-13.856-59.26c-6.09.616-14.207,1.81-20.23,3.99-26.431,9.57-72.759,75.031-72.759,75.031-29.023-1.232-56.2-2.463-56.2-2.463l14.207,42s35.816,11.731,61.754,4.926c26.314-6.891,51.261-43.846,51.261-43.846l8.621,24.7L665.76,518.27H794.835L773.22,479.985c3.695-33.969,9.853-100.052,9.853-100.052a59.894,59.894,0,0,0-18.524-7.39C757.178,370.88,749.074,371.872,741.653,370.4Z" class="c" transform="translate(-110.245 -88.132)"/><path d="M561.221,550.727H668.176l-24.319-76.8a11.165,11.165,0,0,0-10.647-7.8H542.82a11.165,11.165,0,0,0-10.647,14.546l20.1,63.515A9.385,9.385,0,0,0,561.221,550.727Z" class="e" transform="translate(-105.216 -124.906)"/><path d="M605.4,521.995c2.839-3.88,15.716,6.368,16.664,7.211.493-.844,7.2-11.085,12.113-7.211,4.268,3.362-5.111,18.382-7.605,22.213a1.115,1.115,0,0,1-1.657,0C620.366,540.377,602.939,525.357,605.4,521.995Z" class="b" transform="translate(-133.459 -146.036)"/><ellipse cx="2.038" cy="6.238" class="b" rx="2.038" ry="6.238" transform="translate(481.887 367.252) rotate(-17.3)"/><path d="M742.733,589.455a6.645,6.645,0,0,1-6.331,8.621H573.673a9.385,9.385,0,0,1-8.948-6.546l-.665-2.1Z" class="e" transform="translate(-117.668 -172.279)"/><rect width="476.771" height="15.439" class="b" transform="translate(341.537 425.821)"/><path d="M944.422,716.729l9.9-38.729H896.56a57.948,57.948,0,0,0-56.137,43.585l-6.713,26.237h70.665a41.339,41.339,0,0,0,40.046-31.09Z" class="k" transform="translate(-221.263 -206.307)"/><line x1="2.285" y2="9.656" class="l" transform="translate(611.53 531.36)"/><path d="M529.657,501.83c-7.187,3.59-10.777,9.576-10.777,13.77,0,6.121,6.232,7.273,6.232,7.273s-4.649,7.31,3.436,10.74c0,0,0,7.525,7.531,7.525,0,0-1,5.869,6.86,6.423s15.944-3.547,16.627-6.2c.782-3.134-1.33-5.758-7.033-6.589,0,0,7.7-3.6,6.478-8.135s-6.423-4.434-6.423-4.434,4.982-2.987,2.322-7.39-7.747-2.876-7.747-2.876a5.143,5.143,0,0,0-1-5.425c-2.771-2.771-14.687.727-14.687.727Z" class="p" transform="translate(-100.31 -138.625)"/><path d="M546.9,561.9a89.8,89.8,0,0,0,18.758-6.774" class="n" transform="translate(-111.075 -159.102)"/><path d="M534.55,546.415a96.067,96.067,0,0,0,25.482-11.165" class="n" transform="translate(-106.33 -151.464)"/><path d="M528,530.378a79.563,79.563,0,0,0,23.3-11.288" class="n" transform="translate(-103.814 -145.256)"/><path d="M877.789,272.615c-10.629-15.352-39.529-9.237-39.529-9.237.7-8.431,2.993-32.718-15.272-46.063s-41.438-6.318-49.881,4.212c-3.436,4.311-5.117,10.112-6.1,16.442,5.6.942,13.825-.985,13.825-.985,11.239,12.643,21.307,14.65,21.307,14.65,7.864-7.864,21.658-7.605,23.9,4.311,2.328,12.372-17.434,17.933-17.434,17.933s-1.847,22.231,8.006,30.261a23.137,23.137,0,0,0,10.4,4.662c7.39,1.472,15.525.48,22.952,2.131a59.894,59.894,0,0,1,18.524,7.39,47.422,47.422,0,0,0,6.158-6.565C881.127,303.541,888.874,288.626,877.789,272.615Z" class="o" transform="translate(-195.638 -26.507)"/><path d="M800.409,246.5a31.452,31.452,0,0,1-12.969,6.158" class="q" transform="translate(-203.487 -40.531)"/><path d="M802.09,348.775a45.889,45.889,0,0,0,8.258-3.695" class="n" transform="translate(-209.115 -78.404)"/><line x2="5.616" y1="3.51" class="n" transform="translate(613.728 231.439)"/><path d="M783.46,319.043c1.164.721,5.542,1.281,7.279-2.063" class="n" transform="translate(-201.958 -67.609)"/><circle cx="2.106" cy="2.106" r="2.106" class="f" transform="translate(590.838 231.42)"/><circle cx="2.106" cy="2.106" r="2.106" class="f" transform="translate(573.38 228.631)"/><path d="M782.934,299.93c-.419,1.324-.782,2.765-.542,3.245a3.547,3.547,0,0,0,1.441,1.435" class="n" transform="translate(-201.518 -61.058)"/><circle cx="7.377" cy="7.377" r="7.377" class="i" transform="translate(608.992 240.83)"/><ellipse cx="12.101" cy="10.894" class="g" rx="12.101" ry="10.894" transform="translate(557.181 239.64) rotate(-78.99)"/><ellipse cx="12.101" cy="10.894" class="g" rx="12.101" ry="10.894" transform="translate(583.938 242.921) rotate(-78.99)"/><line x2="4.255" y2=".456" class="g" transform="translate(581.385 230.928)"/><line x1="1.225" y2="7.882" class="g" transform="translate(642.807 237.683)"/><line x2="5.961" y2="17.348" class="r" transform="translate(554.93 348.007)"/><line x1="15.673" class="r" transform="translate(570.75 387.53)"/><path d="M811.51,469.13l4.939,24.085v22.231" class="r" transform="translate(-212.734 -126.062)"/><path d="M757.087,379.51l9.379,21.221L755.35,399.5l39.523,59.285" class="r" transform="translate(-191.158 -91.632)"/><path d="M871.968,375.41l-15.919,22.514,14.823-1.238L816.52,444.856" class="r" transform="translate(-214.659 -90.056)"/><line x1="11.842" y1="16.541" class="r" transform="translate(653.744 344.306)"/><path d="M926.656,590.469c-6.448-2.149-18.019-6.3-25-10.469" class="r" transform="translate(-247.368 -168.657)"/><circle cx="12.113" cy="12.113" r="12.113" class="k" transform="translate(489.327 244.352)"/><rect width="17.206" height="6.355" class="c" rx="3.178" transform="translate(456.219 197.384) rotate(50.33)"/><path d="M530.053,261.66l-7.094-8.56L395.441,358.836a5.45,5.45,0,0,0-.714,7.673l.142.172a5.444,5.444,0,0,0,7.667.714L442.4,334.326V450.364h11.128V325.089Z" class="e" transform="translate(-52.13 -43.067)"/><path d="M581.89,271l3.553,4.311a15.249,15.249,0,0,1,2.771,5.062" class="s" transform="translate(-124.518 -49.944)"/><circle cx="14.515" cy="14.515" r="14.515" class="c" transform="translate(381.319 264.798)"/><circle cx="5.579" cy="5.579" r="5.579" class="e" transform="translate(390.255 273.733)"/><line x1="18.567" y2="15.346" class="d" transform="translate(492.819 249.587)"/><path d="M609.889,255.06a15.285,15.285,0,0,1-9.989-5.432l-4.927-5.955a10.284,10.284,0,0,0-14.472-1.349h0a10.272,10.272,0,0,0-1.349,14.465l4.927,5.973a15.279,15.279,0,0,1,3.467,10.789l-1.232,18.006a41.2,41.2,0,0,0,6.38,25.027l1.576,2.463,59.075-49-2.118-1.989a41.186,41.186,0,0,0-23.4-10.906Z" class="e" transform="translate(-122.557 -38.019)"/><path d="M467.108,573.43H455.98l-16.448,4.483a14.552,14.552,0,0,0-10.721,14.041h65.461a14.552,14.552,0,0,0-10.728-14.041Z" class="e" transform="translate(-65.707 -166.133)"/><line x1="54.063" y2="44.684" class="t" transform="translate(465.52 223.316)"/><line x2="11.399" class="t" transform="translate(390.002 406.023)"/><line x2="60.769" class="t" transform="translate(365.265 418.124)"/><path d="M989.925,822.047c1.232-10.469.616-33.969-12.969-51.876s4.927-10.469,10.469-5.542c8.868,7.882,16.676,15.438,23.469,40.761Z" class="f" transform="translate(-274.421 -237.357)"/><path d="M1267.2,1032.661h72.5v-2.371a12.606,12.606,0,0,0-12.606-12.6h-60.27Z" class="o" transform="translate(-387.657 -336.81)"/><path d="M979.356,889l15.291,69.218h28.414V953.9a10.5,10.5,0,0,0-10.469-10.5h0s14.2-10.647,22.847-21.147c0,0,14.823,18.062,35.822,14.97l1.521,7.39a17.039,17.039,0,0,0,16.658,13.6h68.867c30.544,0,45.57-4.662,46.432-22.052a4.926,4.926,0,0,0-4.927-5.124h-19.226a5.3,5.3,0,0,1-4.132-1.977l-8.184-10.155a20.174,20.174,0,0,0-20.673-6.879l-16.461,4.206s-29.165-41.912-55.584-71.022c-25.248-27.792-72.74-30.791-91.449,5.407A56.9,56.9,0,0,0,979.356,889Z" class="o" transform="translate(-276.673 -262.363)"/><path d="M1246.7,1032.661v-2.371a12.6,12.6,0,0,0-12.606-12.6H1225.7" class="u" transform="translate(-371.859 -336.81)"/><path d="M1073.17,939.023c4.311-5.13,19.023-24.017,17.969-42.491-1.127-19.768-12.969-30.261-12.969-30.261" class="g" transform="translate(-313.259 -278.637)"/><path d="M1123.41,965.54s.788,14.613,2.371,25.526" class="g" transform="translate(-332.561 -316.775)"/><line y2="5.709" class="g" transform="translate(731.565 689.526)"/><line y2="5.709" class="g" transform="translate(738.357 689.526)"/><line y2="5.709" class="g" transform="translate(861.255 689.526)"/><line y2="5.709" class="g" transform="translate(868.048 689.526)"/><circle cx="2.777" cy="2.777" r="2.777" class="f" transform="translate(883.486 667.295)"/><path d="M1243.34,966.864v-.074l-16.67,4.311,16.461-4.206Z" class="f" transform="translate(-372.232 -317.255)"/><path d="M1180.184,998.485c-4.828,2.463-11.651,7.285-11.085,14.589h26.813l5.635-8.886a10.216,10.216,0,0,1,8.621-4.748h1.792l9.188-32.318-.135-.142-16.461,4.206-15.759,20.186A25.961,25.961,0,0,1,1180.184,998.485Z" class="f" transform="translate(-350.101 -317.328)"/><path d="M1119.1,867.494s-7.458,25.815,16.627,35.563c12.212,4.927,22.354,1.189,29.393-3.695-10.635-14.164-24.706-32.195-38.07-46.925a64.745,64.745,0,0,0-11.22-9.8C1112.188,847.6,1108.2,859.883,1119.1,867.494Z" class="m" transform="translate(-328.18 -269.559)"/><circle cx="10.192" cy="10.192" r="10.192" class="m" transform="translate(719.211 596.273)"/><path d="M1335.881,997.87h-3.695a7.119,7.119,0,0,0,6.965,8.5,6.861,6.861,0,0,0,1.293-.123,26.434,26.434,0,0,0,.363-3.252,4.926,4.926,0,0,0-4.926-5.124Z" class="f" transform="translate(-412.717 -329.196)"/><line y2="5.567" class="g" transform="translate(937.832 689.526)"/><line y2="5.567" class="g" transform="translate(944.625 689.526)"/><path d="M1301.57,1031.872c15.1-1.521,24.1-5.61,27.373-14.312" class="r" transform="translate(-401.007 -336.76)"/><path d="M853.344,514.307a146.149,146.149,0,0,0-22.853-.252c-10.888.893-25.526,3.744-31.407,6.589s-28.4,12.889-22.336,16.258c5.542,3.079,17.169-1.552,17.169-1.552s-11.6,10.666-13.6,15.131,4.6,6.971,4.6,6.971c1.737,7.624,9.508,4.348,9.508,4.348,4.9,10.413,31.345-12.15,31.345-12.15a65.055,65.055,0,0,0,18.862-.794s3.35,1.878,8.726,4.489Z" class="p" transform="translate(-198.985 -143.195)"/><path d="M967.847,517.435c49.407-23.469-22.213-111.155-47.553-131.545l-14.2,57.437L924,468.028c-7.845-1.355-15.346-2.285-22.231-2.833v39.037C917.449,511.855,950.395,525.748,967.847,517.435Z" class="c" transform="translate(-247.41 -94.083)"/><path d="M801.43,541.765c4.385-3.627,11.664-9.49,17.1-13.025" class="n" transform="translate(-208.861 -148.963)"/><path d="M820.316,542.81c-12.618,8.172-24.115,19.09-29.805,24.8" class="n" transform="translate(-204.666 -154.369)"/><path d="M832.3,557.82c-8.621,5.918-18.628,14.89-25.162,21.049" class="n" transform="translate(-211.055 -160.136)"/><path d="M1074.3,549.345a3.529,3.529,0,0,1,3.522,3.522v.523a3.529,3.529,0,0,1-3.522,3.523h-18.148v-7.568H1074.3m0-4.927H1051.9a.665.665,0,0,0-.665.671v16.1a.665.665,0,0,0,.665.665h22.41a8.449,8.449,0,0,0,8.449-8.468v-.542a8.449,8.449,0,0,0-8.449-8.449Z" class="v" transform="translate(-304.83 -154.98)"/><path d="M1027.961,531c-18.351,0-26.831-14.626-26.831-14.626l12.316,53.662h28.993l12.316-53.662A31.5,31.5,0,0,1,1027.961,531Z" class="v" transform="translate(-285.583 -144.211)"/><path d="M1027.961,531a31.5,31.5,0,0,0,26.831-14.626H1001.13S1009.61,531,1027.961,531Z" class="e" transform="translate(-285.583 -144.211)"/></g></g></svg>