<svg xmlns="http://www.w3.org/2000/svg" width="199" height="180" viewBox="0 0 199 180"><defs><style>.a{fill:#f3f3f3;}.b{fill:#fdba2f;}.c{fill:#81d0d3;}</style></defs><g transform="translate(-200.903 -643.318)"><ellipse class="a" cx="4.5" cy="5" rx="4.5" ry="5" transform="translate(200.903 643.318)"/><circle class="a" cx="5" cy="5" r="5" transform="translate(220.903 643.318)"/><ellipse class="a" cx="4.5" cy="5" rx="4.5" ry="5" transform="translate(242.903 643.318)"/><ellipse class="a" cx="4.5" cy="5" rx="4.5" ry="5" transform="translate(263.903 643.318)"/><ellipse class="a" cx="4.5" cy="5" rx="4.5" ry="5" transform="translate(285.903 643.318)"/><ellipse class="a" cx="4.5" cy="5" rx="4.5" ry="5" transform="translate(305.903 643.318)"/><ellipse class="a" cx="4.5" cy="5" rx="4.5" ry="5" transform="translate(327.903 643.318)"/><ellipse class="a" cx="4.5" cy="5" rx="4.5" ry="5" transform="translate(348.903 643.318)"/><circle class="a" cx="5" cy="5" r="5" transform="translate(369.903 643.318)"/><ellipse class="a" cx="4.5" cy="5" rx="4.5" ry="5" transform="translate(390.903 643.318)"/><circle class="a" cx="4.5" cy="4.5" r="4.5" transform="translate(200.903 664.318)"/><ellipse class="a" cx="5" cy="4.5" rx="5" ry="4.5" transform="translate(220.903 664.318)"/><circle class="a" cx="4.5" cy="4.5" r="4.5" transform="translate(242.903 664.318)"/><circle class="a" cx="4.5" cy="4.5" r="4.5" transform="translate(263.903 664.318)"/><circle class="a" cx="4.5" cy="4.5" r="4.5" transform="translate(285.903 664.318)"/><circle class="a" cx="4.5" cy="4.5" r="4.5" transform="translate(305.903 664.318)"/><circle class="a" cx="4.5" cy="4.5" r="4.5" transform="translate(327.903 664.318)"/><circle class="a" cx="4.5" cy="4.5" r="4.5" transform="translate(348.903 664.318)"/><ellipse class="a" cx="5" cy="4.5" rx="5" ry="4.5" transform="translate(369.903 664.318)"/><circle class="a" cx="4.5" cy="4.5" r="4.5" transform="translate(390.903 664.318)"/><circle class="a" cx="4.5" cy="4.5" r="4.5" transform="translate(200.903 686.318)"/><ellipse class="a" cx="5" cy="4.5" rx="5" ry="4.5" transform="translate(220.903 686.318)"/><circle class="a" cx="4.5" cy="4.5" r="4.5" transform="translate(242.903 686.318)"/><circle class="a" cx="4.5" cy="4.5" r="4.5" transform="translate(263.903 686.318)"/><circle class="a" cx="4.5" cy="4.5" r="4.5" transform="translate(285.903 686.318)"/><circle class="b" cx="4.5" cy="4.5" r="4.5" transform="translate(305.903 686.318)"/><circle class="a" cx="4.5" cy="4.5" r="4.5" transform="translate(327.903 686.318)"/><circle class="a" cx="4.5" cy="4.5" r="4.5" transform="translate(348.903 686.318)"/><ellipse class="a" cx="5" cy="4.5" rx="5" ry="4.5" transform="translate(369.903 686.318)"/><circle class="a" cx="4.5" cy="4.5" r="4.5" transform="translate(390.903 686.318)"/><ellipse class="a" cx="4.5" cy="5" rx="4.5" ry="5" transform="translate(200.903 706.318)"/><circle class="a" cx="5" cy="5" r="5" transform="translate(220.903 706.318)"/><ellipse class="a" cx="4.5" cy="5" rx="4.5" ry="5" transform="translate(242.903 706.318)"/><ellipse class="a" cx="4.5" cy="5" rx="4.5" ry="5" transform="translate(263.903 706.318)"/><ellipse class="b" cx="4.5" cy="5" rx="4.5" ry="5" transform="translate(285.903 706.318)"/><ellipse class="a" cx="4.5" cy="5" rx="4.5" ry="5" transform="translate(305.903 706.318)"/><ellipse class="b" cx="4.5" cy="5" rx="4.5" ry="5" transform="translate(327.903 706.318)"/><ellipse class="a" cx="4.5" cy="5" rx="4.5" ry="5" transform="translate(348.903 706.318)"/><circle class="a" cx="5" cy="5" r="5" transform="translate(369.903 706.318)"/><ellipse class="a" cx="4.5" cy="5" rx="4.5" ry="5" transform="translate(390.903 706.318)"/><ellipse class="a" cx="4.5" cy="5" rx="4.5" ry="5" transform="translate(200.903 728.318)"/><circle class="a" cx="5" cy="5" r="5" transform="translate(220.903 728.318)"/><ellipse class="a" cx="4.5" cy="5" rx="4.5" ry="5" transform="translate(242.903 728.318)"/><ellipse class="b" cx="4.5" cy="5" rx="4.5" ry="5" transform="translate(263.903 728.318)"/><ellipse class="a" cx="4.5" cy="5" rx="4.5" ry="5" transform="translate(285.903 728.318)"/><ellipse class="b" cx="4.5" cy="5" rx="4.5" ry="5" transform="translate(305.903 728.318)"/><ellipse class="a" cx="4.5" cy="5" rx="4.5" ry="5" transform="translate(327.903 728.318)"/><ellipse class="a" cx="4.5" cy="5" rx="4.5" ry="5" transform="translate(348.903 728.318)"/><circle class="a" cx="5" cy="5" r="5" transform="translate(369.903 728.318)"/><ellipse class="a" cx="4.5" cy="5" rx="4.5" ry="5" transform="translate(390.903 728.318)"/><ellipse class="a" cx="4.5" cy="5" rx="4.5" ry="5" transform="translate(200.903 750.318)"/><circle class="a" cx="5" cy="5" r="5" transform="translate(220.903 750.318)"/><ellipse class="a" cx="4.5" cy="5" rx="4.5" ry="5" transform="translate(242.903 750.318)"/><ellipse class="c" cx="4.5" cy="5" rx="4.5" ry="5" transform="translate(263.903 750.318)"/><ellipse class="b" cx="4.5" cy="5" rx="4.5" ry="5" transform="translate(285.903 750.318)"/><ellipse class="a" cx="4.5" cy="5" rx="4.5" ry="5" transform="translate(305.903 750.318)"/><ellipse class="a" cx="4.5" cy="5" rx="4.5" ry="5" transform="translate(327.903 750.318)"/><ellipse class="a" cx="4.5" cy="5" rx="4.5" ry="5" transform="translate(348.903 750.318)"/><circle class="a" cx="5" cy="5" r="5" transform="translate(369.903 750.318)"/><ellipse class="a" cx="4.5" cy="5" rx="4.5" ry="5" transform="translate(390.903 750.318)"/><circle class="a" cx="4.5" cy="4.5" r="4.5" transform="translate(200.903 771.318)"/><ellipse class="a" cx="5" cy="4.5" rx="5" ry="4.5" transform="translate(220.903 771.318)"/><circle class="a" cx="4.5" cy="4.5" r="4.5" transform="translate(242.903 771.318)"/><circle class="a" cx="4.5" cy="4.5" r="4.5" transform="translate(263.903 771.318)"/><circle class="a" cx="4.5" cy="4.5" r="4.5" transform="translate(285.903 771.318)"/><circle class="a" cx="4.5" cy="4.5" r="4.5" transform="translate(305.903 771.318)"/><circle class="a" cx="4.5" cy="4.5" r="4.5" transform="translate(327.903 771.318)"/><circle class="a" cx="4.5" cy="4.5" r="4.5" transform="translate(348.903 771.318)"/><ellipse class="a" cx="5" cy="4.5" rx="5" ry="4.5" transform="translate(369.903 771.318)"/><circle class="a" cx="4.5" cy="4.5" r="4.5" transform="translate(390.903 771.318)"/><circle class="a" cx="4.5" cy="4.5" r="4.5" transform="translate(200.903 793.318)"/><ellipse class="a" cx="5" cy="4.5" rx="5" ry="4.5" transform="translate(220.903 793.318)"/><circle class="a" cx="4.5" cy="4.5" r="4.5" transform="translate(242.903 793.318)"/><circle class="a" cx="4.5" cy="4.5" r="4.5" transform="translate(263.903 793.318)"/><circle class="a" cx="4.5" cy="4.5" r="4.5" transform="translate(285.903 793.318)"/><circle class="a" cx="4.5" cy="4.5" r="4.5" transform="translate(305.903 793.318)"/><circle class="a" cx="4.5" cy="4.5" r="4.5" transform="translate(327.903 793.318)"/><circle class="a" cx="4.5" cy="4.5" r="4.5" transform="translate(348.903 793.318)"/><ellipse class="a" cx="5" cy="4.5" rx="5" ry="4.5" transform="translate(369.903 793.318)"/><circle class="a" cx="4.5" cy="4.5" r="4.5" transform="translate(390.903 793.318)"/><ellipse class="a" cx="4.5" cy="5" rx="4.5" ry="5" transform="translate(200.903 813.318)"/><circle class="a" cx="5" cy="5" r="5" transform="translate(220.903 813.318)"/><ellipse class="a" cx="4.5" cy="5" rx="4.5" ry="5" transform="translate(242.903 813.318)"/><ellipse class="a" cx="4.5" cy="5" rx="4.5" ry="5" transform="translate(263.903 813.318)"/><ellipse class="a" cx="4.5" cy="5" rx="4.5" ry="5" transform="translate(285.903 813.318)"/><ellipse class="a" cx="4.5" cy="5" rx="4.5" ry="5" transform="translate(305.903 813.318)"/><ellipse class="a" cx="4.5" cy="5" rx="4.5" ry="5" transform="translate(327.903 813.318)"/><ellipse class="a" cx="4.5" cy="5" rx="4.5" ry="5" transform="translate(348.903 813.318)"/><circle class="a" cx="5" cy="5" r="5" transform="translate(369.903 813.318)"/><ellipse class="a" cx="4.5" cy="5" rx="4.5" ry="5" transform="translate(390.903 813.318)"/></g></svg>