<svg xmlns="http://www.w3.org/2000/svg" width="149.693" height="62.62" viewBox="0 0 149.693 62.62"><defs><style>.a{fill:#fff;}</style></defs><g transform="translate(-122.323 -74.054)"><g transform="translate(165.685 96.974)"><path class="a" d="M3.747,682v3.162H9.837v3.607H3.747v6.019H0V678.4H9.954V682Z" transform="translate(0 -678.4)"/><path class="a" d="M132.107,726v11.708H128.6v-1.1a4,4,0,0,1-3.347,1.428c-2.363,0-4.379-1.686-4.379-4.848V726h3.513v6.675a1.931,1.931,0,0,0,2.038,2.131c1.288,0,2.178-.749,2.178-2.412V726Z" transform="translate(-108.97 -721.313)"/><path class="a" d="M257.094,699.34v4.146c0,1.007.866,1.1,2.412,1.007v3.185c-4.591.469-5.926-.914-5.926-4.192V699.34H251.71v-3.37h1.871v-2.225l3.514-1.055v3.28h2.412v3.372Z" transform="translate(-226.928 -691.283)"/><path class="a" d="M363.08,726v11.708h-3.512v-1.1a4,4,0,0,1-3.347,1.428c-2.363,0-4.38-1.686-4.38-4.848V726h3.513v6.675a1.931,1.931,0,0,0,2.038,2.131c1.288,0,2.178-.749,2.178-2.412V726Z" transform="translate(-317.2 -721.313)"/><path class="a" d="M499.207,723.6v3.978c-1.452-.234-3.513.351-3.513,2.67v5.293H492.18v-11.7h3.514v2.084A3.515,3.515,0,0,1,499.207,723.6Z" transform="translate(-443.723 -719.15)"/><path class="a" d="M577.225,731.914a3.07,3.07,0,0,0,2.248-.886l2.811,1.616a5.941,5.941,0,0,1-5.106,2.412c-4.005,0-6.487-2.693-6.487-6.183a6,6,0,0,1,6.229-6.183,5.913,5.913,0,0,1,5.95,6.183,6.813,6.813,0,0,1-.137,1.4h-8.318A2.666,2.666,0,0,0,577.225,731.914Zm2.154-4.263a2.638,2.638,0,0,0-5.035,0Z" transform="translate(-514.503 -718.33)"/><path class="a" d="M725.851,727.516V734.7h-3.513v-6.675a1.931,1.931,0,0,0-2.038-2.13c-1.288,0-2.178.749-2.178,2.412V734.7H714.61V723h3.513v1.1a4,4,0,0,1,3.347-1.428C723.837,722.668,725.851,724.354,725.851,727.516Z" transform="translate(-644.253 -718.311)"/><path class="a" d="M854.877,731.139c0,2.694-2.341,3.84-4.872,3.84-2.342,0-4.122-.886-5.035-2.787l3.044-1.733a1.926,1.926,0,0,0,1.991,1.378c.844,0,1.265-.258,1.265-.727,0-1.288-5.761-.609-5.761-4.661,0-2.553,2.154-3.84,4.591-3.84a5.123,5.123,0,0,1,4.566,2.506l-3,1.621a1.7,1.7,0,0,0-1.568-1.031c-.609,0-.984.234-.984.656C849.115,727.7,854.877,726.806,854.877,731.139Z" transform="translate(-761.779 -718.257)"/><path class="a" d="M962.834,731.914a3.075,3.075,0,0,0,2.249-.886l2.81,1.616a5.941,5.941,0,0,1-5.106,2.412c-4.005,0-6.487-2.693-6.487-6.183a6,6,0,0,1,6.23-6.183,5.912,5.912,0,0,1,5.949,6.183,6.823,6.823,0,0,1-.141,1.4h-8.314A2.668,2.668,0,0,0,962.834,731.914Zm2.154-4.263a2.638,2.638,0,0,0-5.035,0Z" transform="translate(-862.148 -718.33)"/></g><g transform="translate(122.323 74.054)"><path class="a" d="M498.686,330.572V316.411a4.681,4.681,0,1,0-3.089,0h0v14.161h0a4.68,4.68,0,1,0,3.089,0Zm-3.138-18.577a1.593,1.593,0,1,1,1.593,1.593A1.593,1.593,0,0,1,495.548,311.994Zm1.593,24.586a1.592,1.592,0,1,1,1.593-1.592A1.592,1.592,0,0,1,497.141,336.58Z" transform="translate(-478.876 -277.049)"/><path class="a" d="M387.877,44.092V26.508a9.869,9.869,0,0,0-8.1-9.7,9.9,9.9,0,1,0-14.052,0,9.868,9.868,0,0,0-8.1,9.7V44.092a4.679,4.679,0,1,0,3.087,0V26.508a6.774,6.774,0,0,1,6.766-6.766h10.555a6.773,6.773,0,0,1,6.766,6.766V44.092a4.678,4.678,0,1,0,3.088,0Zm-27.126,4.416a1.592,1.592,0,1,1-1.592-1.592,1.592,1.592,0,0,1,1.592,1.592Zm11.995-31.852a6.818,6.818,0,1,1,6.819-6.819A6.818,6.818,0,0,1,372.746,16.656ZM386.333,50.1a1.592,1.592,0,1,1,1.591-1.592,1.592,1.592,0,0,1-1.591,1.592Z" transform="translate(-354.481 0.074)"/></g></g></svg>