<svg xmlns="http://www.w3.org/2000/svg" xmlns:xlink="http://www.w3.org/1999/xlink" width="169.217" height="150.288" viewBox="0 0 169.217 150.288"><defs><style>.a{fill:none}.b{fill:#ff7901}.c{fill:#be5d45}.d{fill:#f2e5d4}.e{fill:#231a1f}.f{fill:#ffad07}.g{fill:#904432}.h{fill:#682ffd}.i{fill:#27b5ed}.j{fill:#341290}.k{clip-path:url(#a)}.l{fill:#030504}.m{fill:#f2dfce}</style><clipPath id="a"><path d="M342.881,263.857c-.311-.751.726-1.928,2.453-2.922-2.339-.582-4-1.666-3.833-2.577s2.1-1.339,4.5-1.058c-1.259-1.537-1.814-3.006-1.258-3.6.708-.757,2.955.2,5.017,2.126,1.8,1.684,2.862,3.558,2.636,4.512-.126.971-1.782,2.348-4.059,3.29C345.717,264.715,343.279,264.817,342.881,263.857Z" class="a" transform="translate(-341.49 -253.442)"/></clipPath></defs><g><path d="M422.658,28.92h1.886a26.87,26.87,0,0,1,26.863,26.87v51.26H395.78V55.79a26.87,26.87,0,0,1,26.87-26.87Z" class="b" transform="translate(64.722 4.729) translate(-395.78 -28.92)"/></g><g><path d="M498.017,314.654v31.654H473.334V314.654h24.683m.654-.654H472.68v32.963h25.991Z" class="c" transform="translate(77.297 51.348) translate(-472.68 -314)"/></g><g transform="translate(77.297 51.347)"><rect width="25.991" height="6.814" class="c"/></g><g><path d="M392.491,209.984v48.93H377.634v-48.93h14.857m.654-.654H376.98v50.238h16.165Z" class="c" transform="translate(61.648 34.232) translate(-376.98 -209.33)"/></g><g><path d="M648.735,149.414V208.09H629.124V149.414h19.611m.654-.654H628.47v59.984h20.919Z" class="c" transform="translate(102.774 24.327) translate(-628.47 -148.76)"/></g><g><path d="M666.76,197.7h.188a2.679,2.679,0,0,1,2.679,2.679h0v6.038H664.08v-6.038a2.679,2.679,0,0,1,2.679-2.679Z" class="c" transform="translate(108.597 32.33) translate(-664.08 -197.7)"/></g><g><path d="M665.351,225.424h-6.814a.327.327,0,0,1,0-.654h6.814a.327.327,0,1,1,0,.654Z" class="b" transform="translate(107.637 36.757) translate(-658.21 -224.77)"/></g><g><path d="M666.76,293.32h.188A2.679,2.679,0,0,1,669.627,296h0v6.038H664.08V296a2.679,2.679,0,0,1,2.679-2.679Z" class="d" transform="translate(108.597 47.967) translate(-664.08 -293.32)"/></g><g><path d="M665.351,321.044h-6.814a.327.327,0,0,1,0-.654h6.814a.327.327,0,1,1,0,.654Z" class="b" transform="translate(107.637 52.393) translate(-658.21 -320.39)"/></g><g><path d="M666.76,388.94h.188a2.679,2.679,0,0,1,2.679,2.679h0v6.037H664.08v-6.037a2.679,2.679,0,0,1,2.679-2.679h0Z" class="d" transform="translate(108.597 63.603) translate(-664.08 -388.94)"/></g><g><path d="M665.351,416.664h-6.814a.327.327,0,0,1,0-.654h6.814a.327.327,0,1,1,0,.654Z" class="b" transform="translate(107.637 68.03) translate(-658.21 -416.01)"/></g><g><path d="M666.76,484.56h.188a2.679,2.679,0,0,1,2.679,2.679h0v5.547H664.08v-5.547a2.679,2.679,0,0,1,2.679-2.679Z" class="e" transform="translate(108.597 79.24) translate(-664.08 -484.56)"/></g><g transform="translate(102.774 24.327)"><rect width="20.919" height="2.615" class="c"/></g><g transform="translate(61.648 32.964)"><rect width="16.165" height="2.615" class="c"/></g><g transform="translate(81.973 64.343)"><rect width="5.547" height="7.132" class="d"/></g><g><path d="M502.533,411.494h-6.816a.327.327,0,0,1,0-.654h6.816a.327.327,0,0,1,0,.654Z" class="b" transform="translate(81.011 67.185) translate(-495.39 -410.84)"/></g><g><path d="M516.557,415.774a.327.327,0,0,1-.327-.327v-4.28a.327.327,0,0,1,.654,0v4.28A.327.327,0,0,1,516.557,415.774Z" class="b" transform="translate(84.419 67.185) translate(-516.23 -410.84)"/></g><g transform="translate(81.973 77.222)"><rect width="5.547" height="7.132" class="c"/></g><g><path d="M502.533,490.254h-6.816a.327.327,0,0,1,0-.654h6.816a.327.327,0,0,1,0,.654Z" class="b" transform="translate(81.011 80.064) translate(-495.39 -489.6)"/></g><g><path d="M516.557,494.534a.327.327,0,0,1-.327-.327v-4.28a.327.327,0,0,1,.654,0v4.28A.327.327,0,0,1,516.557,494.534Z" class="b" transform="translate(84.419 80.064) translate(-516.23 -489.6)"/></g><g transform="translate(92.432 64.343)"><rect width="5.547" height="7.132" class="e"/></g><g><path d="M566.5,411.494h-6.814a.327.327,0,0,1,0-.654H566.5a.327.327,0,0,1,0,.654Z" class="b" transform="translate(91.472 67.185) translate(-559.36 -410.84)"/></g><g><path d="M580.517,415.774a.327.327,0,0,1-.327-.327v-4.28a.327.327,0,1,1,.654,0v4.28A.327.327,0,0,1,580.517,415.774Z" class="b" transform="translate(94.878 67.185) translate(-580.19 -410.84)"/></g><g transform="translate(92.432 77.222)"><rect width="5.547" height="7.132" class="d"/></g><g><path d="M566.5,490.254h-6.814a.327.327,0,0,1,0-.654H566.5a.327.327,0,0,1,0,.654Z" class="b" transform="translate(91.472 80.064) translate(-559.36 -489.6)"/></g><g><path d="M580.517,494.534a.327.327,0,0,1-.327-.327v-4.28a.327.327,0,1,1,.654,0v4.28A.327.327,0,0,1,580.517,494.534Z" class="b" transform="translate(94.878 80.064) translate(-580.19 -489.6)"/></g><g transform="translate(76.861 15.848)"><circle cx="4.121" cy="4.121" r="4.121" class="d"/></g><g transform="translate(57.59 82.885)"><rect width="69.889" height="4.754" class="d"/></g><g><path d="M400.406,0h-2.2A31.463,31.463,0,0,0,366.74,31.463V87.639h65.136V31.463A31.472,31.472,0,0,0,400.406,0Zm-3.48,82.885H371.489V43.265h25.437Zm0-44.374H371.489V31.625A26.871,26.871,0,0,1,396.925,4.793Zm30.189,44.374H401.68V43.265h25.435Zm0-44.374H401.68V4.793a26.87,26.87,0,0,1,25.435,26.832Z" class="d" transform="translate(59.973) translate(-366.74)"/></g><g transform="translate(0 137.561)"><circle cx="6.338" cy="6.338" r="6.338" class="b"/></g><g><path d="M863.491,552.657a1.253,1.253,0,0,1-.1.509c-.491,1.117-2.587,1.282-4.672.368-1.746-.764-2.934-2.042-2.984-3.094h0v13.946H863.5V552.657Z" class="f" transform="translate(139.938 90.013) translate(-855.73 -550.44)"/></g><g><path d="M860.494,541.628c-2.085-.914-4.178-.749-4.672.368a1.273,1.273,0,0,0-.1.582c.051,1.052,1.238,2.33,2.984,3.094,2.085.914,4.178.749,4.672-.368a1.253,1.253,0,0,0,.1-.509C863.485,543.731,862.283,542.41,860.494,541.628Z" class="g" transform="translate(139.935 88.476) translate(-855.716 -541.037)"/></g><g><path d="M899.893,592.13c-.051,1.051-1.238,2.33-2.984,3.1-2.087.913-4.178.749-4.674-.37a1.273,1.273,0,0,1-.1-.507h0v4.906h7.764V592.13Z" class="f" transform="translate(145.89 96.831) translate(-892.13 -592.13)"/></g><g><path d="M899.79,583.666c-.491-1.117-2.587-1.282-4.674-.368-1.787.783-2.989,2.1-2.986,3.169a1.277,1.277,0,0,0,.1.507c.491,1.119,2.587,1.282,4.674.37,1.747-.765,2.934-2.044,2.984-3.1A1.274,1.274,0,0,0,899.79,583.666Z" class="g" transform="translate(145.89 95.29) translate(-892.13 -582.708)"/></g><g><path d="M891.847,610.078a.327.327,0,0,1-.327-.327V605a.327.327,0,0,1,.654,0v4.754A.327.327,0,0,1,891.847,610.078Z" class="g" transform="translate(145.79 98.882) translate(-891.52 -604.67)"/></g><g><path d="M877.8,539.689a.327.327,0,0,1-.327-.327v-2.695a.327.327,0,1,1,.654,0v2.695A.327.327,0,0,1,877.8,539.689Z" class="e" transform="translate(143.493 87.708) translate(-877.47 -536.34)"/></g><g><path d="M914.2,581.526a.327.327,0,0,1-.327-.327v-2.852a.327.327,0,0,1,.654,0V581.2A.327.327,0,0,1,914.2,581.526Z" class="e" transform="translate(149.445 94.524) translate(-913.87 -578.02)"/></g><g><path d="M669.728,845h0a1.253,1.253,0,0,1-1.19-1.645l3.925-11.961a1.256,1.256,0,0,1,1.192-.862H676.4a1.253,1.253,0,0,1,1.094,1.864l-6.682,11.961A1.252,1.252,0,0,1,669.728,845Z" class="e" transform="translate(109.316 135.817) translate(-668.474 -830.53)"/></g><g><path d="M957.1,845h0a1.253,1.253,0,0,0,1.191-1.645l-3.925-11.961a1.256,1.256,0,0,0-1.191-.862h-2.752a1.254,1.254,0,0,0-1.094,1.864l6.682,11.961A1.255,1.255,0,0,0,957.1,845Z" class="e" transform="translate(155.218 135.817) translate(-949.172 -830.53)"/></g><g transform="translate(104.715 103.963)"><rect width="64.501" height="36.925" class="g"/></g><g transform="translate(109.469 108.716)"><rect width="54.992" height="27.417" class="b"/></g><g transform="translate(136.579 108.242)"><rect width=".654" height="28.368" class="g"/></g><g transform="translate(141.725 120.764)"><circle cx="1.661" cy="1.661" r="1.661" class="e"/></g><g transform="translate(128.881 120.764)"><circle cx="1.661" cy="1.661" r="1.661" class="e"/></g><g transform="translate(25.498 134.912)"><rect width="23.296" height="2.693" class="g"/></g><g><path d="M163.339,718.769l-5.771-34.628H161.1a1.426,1.426,0,0,0,0-2.852H134.636a1.426,1.426,0,0,0,0,2.852h3.5l-5.771,34.628a1.2,1.2,0,0,0,1.181,1.393h0a1.2,1.2,0,0,0,1.169-.942l7.647-35.079h10.979l7.645,35.079a1.2,1.2,0,0,0,1.171.942h0a1.2,1.2,0,0,0,1.181-1.393Z" class="f" transform="translate(21.643 111.411) translate(-132.35 -681.29)"/></g><g><path d="M165.5,684.142a1.426,1.426,0,0,0,0-2.852H139.036a1.426,1.426,0,0,0,0,2.852h3.5v.044h4.222l.01-.044h10.979l.01.044h4.222v-.044Z" class="g" transform="translate(22.503 111.411) translate(-137.61 -681.29)"/></g><g><path d="M312.314,662.481h16.844c.209-3.576.957-8.32,1.576-14.729.551-5.683,1.025-10.453.994-14.391-.052-6.564-16.844,1.38-16.844,1.38,0,1.434.289,2.811.3,4.145.02,3.467-1.737,6.417-2.991,10.6a28.3,28.3,0,0,0-.317,13Z" class="h" transform="translate(50.9 103.149) translate(-311.255 -630.763)"/></g><g><path d="M347.584,886.262H332.839a.9.9,0,0,0,.271,1.76l21.7.029c.191-2.11-1.007-3.7-4.389-6.051A11.341,11.341,0,0,0,347.584,886.262Z" class="i" transform="translate(54.326 144.233) translate(-332.211 -882)"/></g><g><path d="M349.006,833.575a6.391,6.391,0,0,1-1.781-1.724c-1.145-1.679-1.387-3.941-1.2-7.131h-14.6a59.3,59.3,0,0,0,.515,7.131c.373,2.677.876,4.518,1.28,6.455h-.767a.888.888,0,0,0-.273.043h14.745a11.266,11.266,0,0,1,2.836-4.252Q349.4,833.84,349.006,833.575Z" class="g" transform="translate(54.199 134.866) translate(-331.43 -824.72)"/></g><g><path d="M348.086,702.19a.327.327,0,0,1-.292-.18,19.519,19.519,0,0,1-1.854-5.809c-.289-2.008-.454-3.75-.6-5.286-.392-4.142-.631-6.667-2.67-8.991h-8.663a.327.327,0,1,1,0-.654h8.809a.327.327,0,0,1,.243.108c2.273,2.515,2.535,5.284,2.932,9.476.145,1.529.309,3.262.595,5.251a18.872,18.872,0,0,0,1.792,5.612.327.327,0,0,1-.292.474Z" class="e" transform="translate(54.567 111.408) translate(-333.68 -681.27)"/></g><g><path d="M194.641,584.592l.016.039,13-6.09c-1.012-3.029-2.07-7.058-3.809-12.332-1.629-4.935-2.706-8.623-3.727-11.476a7.05,7.05,0,0,1-9.208-10.6c-6.942-3.136-31.6-5.182-31.6-5.182l-13.947-2.06a15.423,15.423,0,0,0-1.7,5.4h4.873V547.5a3.982,3.982,0,0,1-3.979,3.972h-.473c1.331,4.906,4.755,9.038,11.745,9.038h28.209c3.011,3.328,2.378,7.132,3.446,14.554a21.924,21.924,0,0,0,5.012,10.548Z" class="h" transform="translate(23.494 87.798) translate(-143.67 -536.89)"/></g><g><path d="M507.921,844.406,494.97,850.28a1.066,1.066,0,0,0,1.07,1.836l19.653-9.158c-.77-2.126-2.751-2.944-7.442-3.761l-.2-.038A13.367,13.367,0,0,0,507.921,844.406Z" class="i" transform="translate(80.868 137.228) translate(-494.514 -839.16)"/></g><g><path d="M475.381,799.4a7.472,7.472,0,0,1-3.285-1.388c-1.612-1.256-2.6-3.3-3.632-6.378l-13,6.09a57.753,57.753,0,0,0,4.123,7.522c1.287,2.025,2.515,3.789,3.341,4.971l-.469.227a1.022,1.022,0,0,0-.152.091l12.952-5.874a13.362,13.362,0,0,1,.128-5.262Z" class="g" transform="translate(74.481 129.455) translate(-455.46 -791.63)"/></g><g><path d="M427.646,593.113a7.013,7.013,0,0,0,4.118-1.333c-2.029-5.7-3.789-8.08-9.11-10.556l-.1-.044a7.05,7.05,0,0,0,5.091,11.929Z" class="j" transform="translate(68.78 95.04) translate(-420.593 -581.18)"/></g><g><path d="M143.17,579.032a3.982,3.982,0,0,0,3.982-3.98V569.84h-4.873a22.893,22.893,0,0,0,.419,9.187h.195Z" class="j" transform="translate(23.222 93.186) translate(-142.002 -569.84)"/></g><g><path d="M392.181,682.364h-4.754a.327.327,0,1,1,0-.654h4.754a.327.327,0,0,1,0,.654Z" class="e" transform="translate(63.302 111.48) translate(-387.1 -681.71)"/></g><g><path d="M416.975,305.7a.326.326,0,0,1-.247-.112c-.085-.1-8.62-9.8-18.531-13.295a.327.327,0,0,1,.217-.617c10.076,3.551,18.72,13.383,18.807,13.482a.327.327,0,0,1-.246.542Z" class="e" transform="translate(65.082 47.695) translate(-397.979 -291.659)"/></g><g><path d="M342.881,263.857c-.311-.751.726-1.928,2.453-2.922-2.339-.582-4-1.666-3.833-2.577s2.1-1.339,4.5-1.058c-1.259-1.537-1.814-3.006-1.258-3.6.708-.757,2.955.2,5.017,2.126,1.8,1.684,2.862,3.558,2.636,4.512-.126.971-1.782,2.348-4.059,3.29C345.717,264.715,343.279,264.817,342.881,263.857Z" class="h" transform="translate(55.844 41.445) translate(-341.49 -253.442)"/></g><g><g class="k"><g transform="translate(55.844 41.445) translate(8.003 3.977)"><circle cx="2.986" cy="2.986" r="2.986" class="e"/></g></g></g><g transform="translate(67.002 39.214)"><ellipse cx="1.585" cy="6.661" class="e" rx="1.585" ry="6.661" transform="translate(0 1.103) rotate(-20.37)"/></g><g><path d="M445.232,328.985a.314.314,0,0,1-.057-.005.327.327,0,0,1-.266-.378,15.412,15.412,0,0,0-.62-6.964.327.327,0,1,1,.615-.224,15.79,15.79,0,0,1,.649,7.3A.327.327,0,0,1,445.232,328.985Z" class="e" transform="translate(72.651 52.526) translate(-444.269 -321.199)"/></g><g><path d="M177.655,522.322l15.22.309s.381-.556.953-1.4L176.01,520.8Z" class="a" transform="translate(28.783 85.166) translate(-176.01 -520.8)"/></g><g><path d="M227.571,238.28a11.96,11.96,0,0,1-5.58,3.715c-1.859-2.028-5.233-2.028-5.748.845-.561,3.184,3.377,4.06,3.377,4.06s.993,4.108-.53,6.137c-1.344,1.8-3.071,2.095-6.61,2.49,4.612,7.792,9.321,7.177,10.889,7.177,3.761,0,4.821-4.365,5.117-6.615a22.38,22.38,0,0,0-2.616-.738l-.507-3.042a5.761,5.761,0,0,0,4.4-.339c2.029-1.182,2.536-3.382,1.859-6.762-.4-2-.386-4.481-.729-6.695A10.507,10.507,0,0,1,227.571,238.28Z" class="g" transform="translate(34.747 38.966) translate(-212.48 -238.28)"/></g><g><path d="M370.995,285.352c-.718-2.873-6.338-4.432-6.338-4.432s.337-6.45-1.11-6.656c-1.109-.164-2.219,2.536-3.169,7.766-1.063,5.845-.476,16.639-.476,16.639s-1.176-1.068-2.844-2.554a2.057,2.057,0,0,1-1.8,1.145,2.057,2.057,0,0,1-1.575,3.331,2.057,2.057,0,0,1-1.575,3.331,2.057,2.057,0,0,1-1.8,3.323c3.472,2.26,8.191,4.9,11.336,4.9C378.126,312.134,371.471,287.253,370.995,285.352Z" class="g" transform="translate(57.286 44.849) translate(-350.31 -274.257)"/></g><g><path d="M172.649,364.206a2.992,2.992,0,0,1,1.773-4.251A2.057,2.057,0,0,1,176,356.624a1.4,1.4,0,0,1,1.357-2.379c-2.875-2.561-7.21-6.358-9.517-8.064a14.437,14.437,0,0,0-3.761-1.859c-.288,2.257-1.341,6.615-5.1,6.615-1.562,0-6.278.615-10.889-7.177l-1.482.164a9.887,9.887,0,0,0-8.791,6.594,36.669,36.669,0,0,0-1.522,5.748,69.493,69.493,0,0,0-.808,10.3l6.634,6.141,17.812.44c1.426-2.1,4.042-5.987,4.906-7.477a9.559,9.559,0,0,0,1.267-3.487s1.9,1.488,4.512,3.187A2.057,2.057,0,0,0,172.649,364.206Z" class="f" transform="translate(22.155 56.215) translate(-135.48 -343.76)"/></g><g><path d="M143.075,201.334c-2.028-2.535-7.607-4.226-12-1.014s-4.057,8.453-3.889,10.482c0,0-4.733-1.522-8.114,2.028a8.557,8.557,0,0,0-2.2,7.777s-6.227-.175-7.439,5.58a6.892,6.892,0,0,0,2.023,6.795,9.1,9.1,0,0,0,2.88,1.827,36.671,36.671,0,0,1,1.522-5.748,9.887,9.887,0,0,1,8.791-6.594l1.482-.163c3.539-.4,5.266-.7,6.61-2.491,1.521-2.029.523-6.137.523-6.137s-3.943-.876-3.382-4.057c.509-2.873,3.889-2.873,5.748-.845a11.985,11.985,0,0,0,5.58-3.719,10.545,10.545,0,0,0,3.328.237A8.272,8.272,0,0,0,143.075,201.334Z" class="e" transform="translate(17.864 32.47) translate(-109.241 -198.559)"/></g><g><path d="M440.473,312.6a.651.651,0,0,1-.273-.06,1.758,1.758,0,0,1-.96-1.176,1.939,1.939,0,0,1-1.8.012,3.033,3.033,0,0,0-2.537-2.025,2.014,2.014,0,0,1-.553-1.6,1.427,1.427,0,0,1-1.157-.792c-.5-.99-.228-2.125.8-3.374a.654.654,0,0,1,1.01.832c-1.008,1.224-.731,1.775-.64,1.956.081.162.533.029.6,0a.656.656,0,0,1,.835.885s-.341.787.034,1.162a.718.718,0,0,0,.925.077.649.649,0,0,1,.761.03.656.656,0,0,1,.211.737.753.753,0,0,0,.32.945c.551.289,1.226-.513,1.233-.521a.655.655,0,0,1,1.162.46c-.029.381-.029,1.042.305,1.2a.654.654,0,0,1-.274,1.248Z" class="e" transform="translate(70.801 49.607) translate(-432.951 -303.349)"/></g><g><path d="M153.342,335.279a.327.327,0,0,1-.279-.156,7.887,7.887,0,0,1-1-2.5.327.327,0,0,1,.64-.135,7.239,7.239,0,0,0,.914,2.292.327.327,0,0,1-.278.5Z" class="l" transform="translate(24.866 54.329) translate(-152.059 -332.229)"/></g><g><path d="M405.744,428.384a.327.327,0,0,1-.326-.3l-.4-4.94a.327.327,0,1,1,.652-.052l.4,4.94a.327.327,0,0,1-.3.352Z" class="e" transform="translate(66.233 69.139) translate(-405.02 -422.789)"/></g><g><path d="M318.535,427.081l-.033,0a.327.327,0,0,1-.293-.358,9.324,9.324,0,0,0-.848-5.236.327.327,0,0,1,.572-.318,9.975,9.975,0,0,1,.927,5.619A.327.327,0,0,1,318.535,427.081Z" class="e" transform="translate(51.891 68.846) translate(-317.32 -420.999)"/></g><g><path d="M229.457,453.813a.327.327,0,0,1-.01-.654l5.071-.159a.327.327,0,1,1,.02.654l-5.071.159Z" class="e" transform="translate(37.47 74.079) translate(-229.13 -453)"/></g><g><path d="M278.467,319.744a.328.328,0,0,1-.12-.023,19.427,19.427,0,0,1-2.106-.977.327.327,0,1,1,.31-.576,18.746,18.746,0,0,0,2.035.943.327.327,0,0,1-.12.632Z" class="e" transform="translate(45.146 52.024) translate(-276.069 -318.129)"/></g><g><path d="M295.393,344.4a.327.327,0,0,1-.323-.276l-.276-1.751a.327.327,0,1,1,.646-.1l.276,1.751a.328.328,0,0,1-.323.378Z" class="e" transform="translate(48.207 55.926) translate(-294.79 -341.99)"/></g><g><path d="M215.548,275.4a.327.327,0,0,1-.324-.288l-.352-2.924a.327.327,0,1,1,.65-.078l.352,2.924a.327.327,0,0,1-.286.364Z" class="l" transform="translate(35.138 44.451) translate(-214.869 -271.819)"/></g><g><path d="M306.2,290.185a2.124,2.124,0,0,1-.514-.062,1.945,1.945,0,0,1-1.254-.978.327.327,0,0,1,.573-.315,1.305,1.305,0,0,0,.84.659,1.2,1.2,0,0,0,.81-.05.327.327,0,1,1,.356.549A1.544,1.544,0,0,1,306.2,290.185Z" class="e" transform="translate(49.777 47.204) translate(-304.389 -288.66)"/></g><g><path d="M251.392,269.345a.323.323,0,0,1-.146-.034l-1.585-.791a.327.327,0,1,1,.292-.585l1.585.791a.327.327,0,0,1-.146.62Z" class="e" transform="translate(40.797 43.81) translate(-249.48 -267.899)"/></g><g><path d="M290.836,269.705a1.777,1.777,0,0,1-1.171-.429.327.327,0,0,1,.423-.5,1.143,1.143,0,0,0,.909.264,1.648,1.648,0,0,0,.964-.458.327.327,0,1,1,.527.387,2.227,2.227,0,0,1-1.416.721A2.044,2.044,0,0,1,290.836,269.705Z" class="e" transform="translate(47.35 43.9) translate(-289.55 -268.449)"/></g><g><path d="M321.806,265.033a1.787,1.787,0,0,1-.978-.292.327.327,0,0,1,.357-.548,1.138,1.138,0,0,0,.862.16.327.327,0,0,1,.136.64A1.821,1.821,0,0,1,321.806,265.033Z" class="e" transform="translate(52.441 43.195) translate(-320.68 -264.14)"/></g><g><path d="M314.447,271.217a.327.327,0,0,1-.2-.59.64.64,0,0,0,.23-.327,3.068,3.068,0,0,0-.3-.842.327.327,0,0,1,.6-.265c.359.811.375,1.074.34,1.238a1.3,1.3,0,0,1-.481.72A.325.325,0,0,1,314.447,271.217Z" class="e" transform="translate(51.368 43.99) translate(-314.12 -269)"/></g><g><path d="M243.281,285.16l-2.163,2.041a.942.942,0,0,0,.327,1.572l2.558.908a.942.942,0,0,0,1.248-1.012l-.394-2.944a.942.942,0,0,0-1.575-.564Z" class="m" transform="translate(39.382 46.591) translate(-240.822 -284.908)"/></g><g><path d="M438.4,287.693a2.94,2.94,0,0,1,2.06-.317,1.717,1.717,0,0,1,1.256,1.861,1.78,1.78,0,0,1,2.464,1.437,1.866,1.866,0,0,1,1.442,2.278s1.506.08,1.207,2.054-1.616,3.614-2.407,3.614c-.818,0-1.395-.5-1.284-1.962,0,0-.991,1.243-2.046.69a1.436,1.436,0,0,1-.633-1.743,1.4,1.4,0,0,1-1.743-.164c-.718-.718-.164-1.9-.164-1.9s-1.053.43-1.426-.317c-.793-1.585,1.388-3.289,1.743-3.8Z" class="g" transform="translate(71.455 46.98) translate(-436.956 -287.287)"/></g><g><path d="M441.237,302.827a.327.327,0,0,1-.221-.568,16.388,16.388,0,0,0,3.746-4.755.327.327,0,1,1,.6.266,17.034,17.034,0,0,1-3.9,4.971A.326.326,0,0,1,441.237,302.827Z" class="e" transform="translate(72.102 48.619) translate(-440.91 -297.31)"/></g><g><path d="M453.467,313.213a.327.327,0,0,1-.212-.576,17.065,17.065,0,0,0,4.261-5.456.327.327,0,1,1,.586.29,17.714,17.714,0,0,1-4.423,5.664A.325.325,0,0,1,453.467,313.213Z" class="e" transform="translate(74.102 50.204) translate(-453.14 -306.999)"/></g><g><path d="M470.6,326.064a.327.327,0,0,1-.253-.534,29.046,29.046,0,0,0,3.017-4.39.327.327,0,1,1,.585.292,29.714,29.714,0,0,1-3.1,4.512A.327.327,0,0,1,470.6,326.064Z" class="e" transform="translate(76.903 52.486) translate(-470.27 -320.959)"/></g><g><path d="M330,461.709H302.55L308.789,442a2.867,2.867,0,0,1,2.734-2h23.194a2.867,2.867,0,0,1,2.734,3.732l-5.159,16.3A2.409,2.409,0,0,1,330,461.709Z" class="e" transform="translate(49.476 71.953) translate(-302.55 -440)"/></g><g><path d="M204.73,559.18a1.7,1.7,0,0,0,1.624,2.219h41.752a2.407,2.407,0,0,0,2.289-1.681l.164-.538Z" class="e" transform="translate(33.466 91.443) translate(-204.65 -559.18)"/></g><g><path d="M410.291,494.994c-.638-.873-3.537,1.433-3.75,1.624-.111-.191-1.619-2.5-2.726-1.624-.96.757,1.145,4.137,1.712,5a.25.25,0,0,0,.353.02l.02-.02C406.932,499.123,410.845,495.743,410.291,494.994Z" class="f" transform="translate(65.995 80.914) translate(-403.568 -494.797)"/></g><g transform="translate(68.774 78.88)"><ellipse cx="1.403" cy=".46" class="f" rx="1.403" ry=".46" transform="translate(0 2.679) rotate(-72.7)"/></g><g><path d="M103.4,364.373a2.062,2.062,0,0,0,2.126-.4,2.056,2.056,0,0,0,3.434,1.338,2.057,2.057,0,0,0,3.434,1.336,2.054,2.054,0,0,0,2.6,1.8l2.473-6.641a21.152,21.152,0,0,0,1.33-7.979l-.25-8.831s-5.706.474-9.033,4.6a54.232,54.232,0,0,0-7.205,13.774,2.056,2.056,0,0,0,1.089,1Z" class="f" transform="translate(16.731 56.418) translate(-102.31 -345)"/></g><g><path d="M103.507,462.354a2.055,2.055,0,0,1-1.308-1.733,2.057,2.057,0,0,1-3.434-1.336,2.056,2.056,0,0,1-3.434-1.338,2.057,2.057,0,0,1-3.228-.607c-1.861,5.264-2.819,10.9-1.017,14.95,3.879,8.731,15.521,5.658,18.268,4.85s8.085-3.557,11.642-3.071,7.6,2.263,8.245,0c0,0,2.177-.056,1.491-2.126,0,0,1.094-.136,1.256-.944.327-1.617-3.557-3.071-3.557-3.071s3.073.491,3.719-.163c.818-.818.023-2.137-5-3.354-5.513-1.334-12.788-.527-23.62,1.413l1.267-3.406A2.039,2.039,0,0,1,103.507,462.354Z" class="g" transform="translate(14.738 74.789) translate(-90.125 -457.34)"/></g><g><path d="M171.467,451.617a.32.32,0,0,1-.106-.018.327.327,0,0,1-.2-.415l3.619-10.564a.327.327,0,0,1,.619.212L171.776,451.4A.327.327,0,0,1,171.467,451.617Z" class="e" transform="translate(27.986 72.018) translate(-171.14 -440.399)"/></g><g><path d="M293.117,510.913a.334.334,0,0,1-.116-.021,40.74,40.74,0,0,0-6.886-2.044.327.327,0,0,1,.1-.646,41.391,41.391,0,0,1,7.014,2.077.327.327,0,0,1-.116.633Z" class="e" transform="translate(46.743 83.106) translate(-285.84 -508.198)"/></g><g><path d="M291.593,528.378a.327.327,0,0,1-.134-.029c-2.317-1.043-6.541-2.842-8.8-3.18a.327.327,0,1,1,.1-.647c2.337.349,6.624,2.174,8.972,3.23a.327.327,0,0,1-.134.625Z" class="e" transform="translate(46.178 85.775) translate(-282.38 -524.519)"/></g><g><path d="M139.816,506.7a.327.327,0,0,1-.064-.648c2.063-.412,4.048-.744,5.047-.9a.327.327,0,1,1,.1.646c-.995.16-2.97.491-5.023.9A.334.334,0,0,1,139.816,506.7Z" class="e" transform="translate(22.811 82.606) translate(-139.49 -505.14)"/></g><g><path d="M287.512,544.038a.323.323,0,0,1-.148-.036,34.8,34.8,0,0,0-7.679-3.023.327.327,0,1,1,.122-.643,35.383,35.383,0,0,1,7.853,3.083.327.327,0,0,1-.149.619Z" class="e" transform="translate(45.693 88.36) translate(-279.419 -540.331)"/></g><g><path d="M722.649,433.4a5.2,5.2,0,0,1-9.321,0s-9.485,21.684-.164,33.089H722.8C732.117,455.084,722.649,433.4,722.649,433.4Z" class="j" transform="translate(115.953 70.874) translate(-709.063 -433.4)"/></g><g><path d="M739.754,436.291a5.212,5.212,0,0,0,4.657-2.891H735.09A5.225,5.225,0,0,0,739.754,436.291Z" class="e" transform="translate(120.209 70.874) translate(-735.09 -433.4)"/></g><g><path d="M716.006,558.771a.327.327,0,0,1-.266-.517,20.067,20.067,0,0,1,16.482-8.8h.006a.327.327,0,0,1,.006.654,19.2,19.2,0,0,0-15.962,8.53A.327.327,0,0,1,716.006,558.771Z" class="d" transform="translate(117.035 89.852) translate(-715.68 -549.45)"/></g><g><path d="M710.876,512.545a.327.327,0,0,1-.077-.645,38.293,38.293,0,0,1,16.8-.139.327.327,0,1,1-.151.636,37.591,37.591,0,0,0-16.489.139A.334.334,0,0,1,710.876,512.545Z" class="d" transform="translate(116.196 83.546) translate(-710.549 -510.892)"/></g><g><path d="M774.349,592.185a.327.327,0,0,1-.325-.3,7.7,7.7,0,0,1,1.911-6.038,6.891,6.891,0,0,1,4.614-2.359h0a.327.327,0,0,1,0,.654,6.206,6.206,0,0,0-4.136,2.143,7.061,7.061,0,0,0-1.744,5.542.327.327,0,0,1-.3.355Z" class="d" transform="translate(126.57 95.418) translate(-773.986 -583.49)"/></g><g><path d="M735.833,356.777a.327.327,0,0,1-.327-.313c-.435-10.334-3.433-15.513-4.342-16.854a.327.327,0,0,1,.542-.367,26.478,26.478,0,0,1,3.592,9.8,53.374,53.374,0,0,1,.861,7.4.327.327,0,0,1-.313.34Z" class="e" transform="translate(119.558 55.453) translate(-731.109 -339.1)"/></g><g transform="translate(109.822 56.663)"><ellipse cx="1.676" cy="7.455" class="e" rx="1.676" ry="7.455" transform="translate(0 2.887) rotate(-59.46)"/></g><g transform="translate(116.804 34.693)"><ellipse cx="1.439" cy="4.124" class="e" rx="1.439" ry="4.124" transform="matrix(0.869, -0.495, 0.495, 0.869, 0, 1.426)"/></g><g><path d="M672.258,279.568c.371-.826,2.118-.886,4.24-.253-1.308-2.34-1.709-4.517-.844-5.078s2.693.68,4.3,2.834c.283-2.2,1.048-3.761,1.962-3.771,1.155,0,2.1,2.546,2.111,5.7a13.992,13.992,0,0,1-.239,2.685,3.323,3.323,0,0,0-4.706,2.984,14.091,14.091,0,0,1-2.466-.854C673.732,282.521,671.786,280.623,672.258,279.568Z" class="h" transform="translate(109.923 44.693) translate(-672.188 -273.3)"/></g><g><path d="M715.8,323.257a3.318,3.318,0,0,1,3.192-.234,4.42,4.42,0,0,1-1.4,2.9c-.582.424-1.815.44-3.3.082A3.323,3.323,0,0,1,715.8,323.257Z" class="e" transform="translate(116.808 52.775) translate(-714.29 -322.721)"/></g><g><path d="M765.828,328.758a.339.339,0,0,1-.057-.005.327.327,0,0,1-.266-.379c.435-2.48,2.8-15.219,6.6-22.429a.327.327,0,0,1,.579.3c-3.753,7.124-6.1,19.774-6.53,22.237A.327.327,0,0,1,765.828,328.758Z" class="e" transform="translate(125.182 50.003) translate(-765.5 -305.77)"/></g><g transform="translate(127.159 60.76)"><ellipse cx="1.59" cy="8.997" class="e" rx="1.59" ry="8.997" transform="translate(0 3.024) rotate(-72.05)"/></g><g><path d="M795.019,240.1c.9-.082,1.812,1.411,2.3,3.572,1.393-2.289,3.1-3.706,4.011-3.226s.728,2.68-.363,5.135c2.054-.829,3.8-.934,4.252-.146.569,1-1.189,3.079-3.925,4.633a14.054,14.054,0,0,1-2.453,1.109,3.325,3.325,0,0,0-4.906-2.638,14.274,14.274,0,0,1-.466-2.569C793.167,242.836,793.869,240.208,795.019,240.1Z" class="h" transform="translate(129.745 39.264) translate(-793.4 -240.1)"/></g><g><path d="M799.71,289.6a3.323,3.323,0,0,1,1.771,2.667,4.425,4.425,0,0,1-3.218.2c-.654-.3-1.274-1.367-1.693-2.841A3.32,3.32,0,0,1,799.71,289.6Z" class="e" transform="translate(130.263 47.295) translate(-796.57 -289.216)"/></g><g><path d="M827.737,331.67v.013a3.326,3.326,0,0,0,1.982,6.324v.013c-4.309,1.349-8.247,1.022-8.8-.733S823.428,333.019,827.737,331.67Z" class="h" transform="translate(134.235 54.238) translate(-820.859 -331.67)"/></g><g><path d="M851.69,337.236a1.614,1.614,0,0,0-.97-3.069,3.326,3.326,0,0,1,2-2.417l1.982,6.324a3.328,3.328,0,0,1-3.011-.837Z" class="b" transform="translate(139.118 54.251) translate(-850.72 -331.75)"/></g><g><path d="M852.285,347.411a1.614,1.614,0,0,1-.932,1.979,3.326,3.326,0,0,1-.97-3.069,1.616,1.616,0,0,1,1.9,1.091Z" class="e" transform="translate(139.052 56.627) translate(-850.318 -346.279)"/></g></svg>