<svg xmlns="http://www.w3.org/2000/svg" width="110.54" height="86.831" viewBox="0 0 110.54 86.831"><defs><style>.a{fill:#fff;}.b{fill:#70c7c9;}.c{fill:#ffbc1e;}</style></defs><path class="a" d="M3.9,682.146v3.287h6.33v3.75H3.9v6.257H0V678.4H10.348v3.746Z" transform="translate(0 -608.957)"/><path class="a" d="M132.551,726v12.172H128.9v-1.144a4.163,4.163,0,0,1-3.48,1.485c-2.456,0-4.553-1.753-4.553-5.04V726h3.652v6.939a2.007,2.007,0,0,0,2.119,2.215c1.339,0,2.264-.779,2.264-2.508V726Z" transform="translate(-108.499 -651.685)"/><path class="a" d="M257.308,699.6v4.31c0,1.047.9,1.144,2.508,1.047v3.311c-4.773.487-6.161-.95-6.161-4.358V699.6H251.71v-3.5h1.945v-2.313l3.653-1.1V696.1h2.508V699.6Z" transform="translate(-225.947 -621.785)"/><path class="a" d="M363.524,726v12.172h-3.651v-1.144a4.161,4.161,0,0,1-3.48,1.485c-2.456,0-4.554-1.753-4.554-5.04V726h3.652v6.939a2.007,2.007,0,0,0,2.119,2.215c1.339,0,2.264-.779,2.264-2.508V726Z" transform="translate(-315.829 -651.685)"/><path class="a" d="M499.485,723.6v4.135c-1.51-.243-3.652.365-3.652,2.776v5.5H492.18V723.846h3.653v2.167A3.654,3.654,0,0,1,499.485,723.6Z" transform="translate(-441.805 -649.531)"/><path class="a" d="M577.483,732.279a3.192,3.192,0,0,0,2.337-.921l2.922,1.68a6.176,6.176,0,0,1-5.308,2.508c-4.164,0-6.744-2.8-6.744-6.428a6.241,6.241,0,0,1,6.476-6.428,6.147,6.147,0,0,1,6.185,6.428,7.074,7.074,0,0,1-.142,1.456h-8.648A2.771,2.771,0,0,0,577.483,732.279Zm2.24-4.432a2.742,2.742,0,0,0-5.234,0Z" transform="translate(-512.279 -648.714)"/><path class="a" d="M726.3,727.708v7.471h-3.652V728.24a2.007,2.007,0,0,0-2.119-2.215c-1.339,0-2.264.779-2.264,2.508v6.647H714.61V723.011h3.652v1.144a4.163,4.163,0,0,1,3.48-1.485C724.2,722.668,726.3,724.42,726.3,727.708Z" transform="translate(-641.469 -648.696)"/><path class="a" d="M855.269,731.477c0,2.8-2.434,3.992-5.064,3.992-2.435,0-4.286-.921-5.234-2.9l3.165-1.8A2,2,0,0,0,850.2,732.2c.877,0,1.315-.268,1.315-.756,0-1.339-5.99-.632-5.99-4.845,0-2.654,2.239-3.992,4.773-3.992a5.326,5.326,0,0,1,4.747,2.6l-3.116,1.685a1.766,1.766,0,0,0-1.631-1.072c-.633,0-1.023.244-1.023.682C849.279,727.9,855.269,726.972,855.269,731.477Z" transform="translate(-758.486 -648.642)"/><path class="a" d="M963.093,732.279a3.2,3.2,0,0,0,2.338-.921l2.921,1.68a6.176,6.176,0,0,1-5.308,2.508c-4.164,0-6.744-2.8-6.744-6.428a6.241,6.241,0,0,1,6.477-6.428,6.147,6.147,0,0,1,6.184,6.428,7.081,7.081,0,0,1-.147,1.461h-8.643A2.773,2.773,0,0,0,963.093,732.279Zm2.239-4.432a2.742,2.742,0,0,0-5.234,0Z" transform="translate(-858.421 -648.714)"/><path class="a" d="M389.2,45.84V27.56a10.26,10.26,0,0,0-8.426-10.081,10.3,10.3,0,1,0-14.609,0A10.259,10.259,0,0,0,357.74,27.56V45.84a4.864,4.864,0,1,0,3.209,0V27.56a7.042,7.042,0,0,1,7.034-7.034h10.973a7.041,7.041,0,0,1,7.034,7.034V45.84a4.863,4.863,0,1,0,3.21,0ZM361,50.431a1.655,1.655,0,1,1-1.655-1.655A1.655,1.655,0,0,1,361,50.431Zm12.469-33.113a7.088,7.088,0,1,1,7.089-7.089A7.088,7.088,0,0,1,373.469,17.318Zm14.124,34.768a1.655,1.655,0,1,1,1.654-1.655,1.655,1.655,0,0,1-1.654,1.655Z" transform="translate(-318.199 0.074)"/><g transform="translate(50.44 31.459)"><path class="a" d="M281.09,331.07v14.662a4.906,4.906,0,0,0-3.21,0V331.07a4.907,4.907,0,0,0,3.21,0Z" transform="translate(-274.618 -321.582)"/><path class="b" d="M247.572,218.664a4.866,4.866,0,1,0-6.2,6.2v.027a4.907,4.907,0,0,0,3.21,0v-.027A4.866,4.866,0,0,0,247.572,218.664Zm-4.594,3.261a1.656,1.656,0,1,1,1.655-1.656A1.653,1.653,0,0,1,242.978,221.925Z" transform="translate(-238.112 -215.402)"/><path class="c" d="M247.579,509.809a4.865,4.865,0,0,0-2.987-2.987v-.032a4.91,4.91,0,0,0-3.21,0v.032a4.865,4.865,0,1,0,6.2,2.987Zm-4.591,3.257h0a1.655,1.655,0,1,1,1.656-1.655A1.655,1.655,0,0,1,242.986,513.066Z" transform="translate(-238.119 -482.64)"/></g></svg>