<svg xmlns="http://www.w3.org/2000/svg" xmlns:xlink="http://www.w3.org/1999/xlink" id="Layer_1" x="0" y="0" version="1.1" viewBox="0 0 888 677.2" xml:space="preserve" style="enable-background:new 0 0 888 677.2"><style type="text/css">.st0{fill:#e6e6e6}.st1{fill:#ff6584}.st2{fill:#6ebfc3}.st3{opacity:.2;enable-background:new}.st4{fill:#3f3d56}</style><path d="M887.7,396.7c0-54.4-44.2-98.6-98.6-98.5c-54.4,0-98.6,44.2-98.5,98.6c0,13.3,2.7,26.5,7.9,38.7	c-0.1-0.1-0.2-0.2-0.3-0.3c4.4,10.2,10.4,19.6,18,27.8c0,0,0,0,0.1,0.1c0.6,0.7,1.2,1.3,1.8,2c18.2,19,43.2,29.9,69.5,30.3	l-3.3,180.9h10.3l-2.1-119.4l14.9-7.8l-2.3-4.3l-12.7,6.7l-1-56.1C844.9,494,887.7,450.2,887.7,396.7z" class="st0"/><path d="M595.1,348.6c0-63.8-51.8-115.5-115.6-115.5c-63.8,0-115.5,51.8-115.5,115.6c0,15.6,3.2,31,9.3,45.4	c-0.1-0.1-0.2-0.2-0.3-0.4c5.1,12,12.2,23,21,32.6c0,0,0.1,0.1,0.1,0.1c0.7,0.8,1.4,1.5,2.2,2.3c21.3,22.2,50.7,35,81.5,35.5	l-3.9,212h12.1l-2.4-139.9l17.4-9.2l-2.7-5.1l-14.9,7.8l-1.1-65.7C545,462.7,595.1,411.4,595.1,348.6z" class="st0"/><path d="M263.3,303.4c0-72.6-58.9-131.4-131.5-131.4C59.1,172.1,0.3,231,0.3,303.6c0,17.7,3.6,35.3,10.6,51.6	c-0.1-0.1-0.3-0.3-0.4-0.4c5.8,13.6,13.9,26.1,23.9,37.1c0,0,0.1,0.1,0.1,0.1c0.8,0.9,1.6,1.8,2.5,2.6	c24.3,25.3,57.7,39.8,92.7,40.3l-4.4,241.3H139l-2.8-159.3l19.9-10.5l-3-5.8l-17,8.9l-1.3-74.8C206.2,433.2,263.3,374.8,263.3,303.4	z" class="st0"/><circle cx="756.7" cy="86" r="86" class="st1"/><circle cx="245.6" cy="187.6" r="172.3" class="st2"/><path d="M118.3,72.5C80.9,160,121.5,261.3,209,298.7c68.1,29.1,147.2,11.5,196.4-43.8C368,342.4,266.8,383,179.3,345.6	S51.1,206.9,88.5,119.4C95.9,102.3,105.9,86.4,118.3,72.5z" class="st3"/><polygon points="246 187.6 246.5 187.6 255 676.1 237 676.1" class="st4"/><rect width="32.2" height="8.5" x="245.1" y="453.2" class="st4" transform="matrix(0.8849 -0.4659 0.4659 0.8849 -183.0325 174.3443)"/><path d="M509.1,671.6c0,0,0.6-13,13.4-11.5" class="st4"/><circle cx="505.5" cy="652.8" r="6.4" class="st2"/><rect width="1.8" height="12.6" x="504.5" y="663.5" class="st4"/><path d="M67.1,669.8c0,0,0.6-13,13.4-11.5" class="st4"/><ellipse cx="63.5" cy="651" class="st2" rx="6.4" ry="6.4" transform="matrix(3.327797e-02 -0.9994 0.9994 3.327797e-02 -589.2729 692.7853)"/><rect width="1.8" height="12.6" x="62.4" y="661.7" class="st4"/><path d="M171.5,670.7c0,0,0.6-13,13.4-11.5" class="st4"/><circle cx="167.9" cy="651.9" r="6.4" class="st2"/><rect width="1.8" height="12.6" x="166.9" y="662.6" class="st4"/><path d="M449.2,83.3L462,73.1c-9.9-1.1-14,4.3-15.7,8.6c-7.8-3.2-16.2,1-16.2,1l25.6,9.3	C454.4,88.5,452.2,85.5,449.2,83.3z" class="st4"/><path d="M643.8,187.5l12.8-10.2c-9.9-1.1-14,4.3-15.7,8.6c-7.8-3.2-16.2,1-16.2,1l25.6,9.3	C649,192.8,646.8,189.8,643.8,187.5z" class="st4"/><path d="M434,276.5l12.8-10.2c-9.9-1.1-14,4.3-15.7,8.6c-7.8-3.2-16.2,1-16.2,1l25.6,9.3	C439.1,281.7,436.9,278.7,434,276.5z" class="st4"/><path d="M683.7,676.3c0,0,0.6-13,13.4-11.5" class="st4"/><path d="M563.9,676.3c0,0,0.6-13,13.4-11.5" class="st4"/><path d="M127.3,676.3c0,0,0.6-13,13.4-11.5" class="st4"/><path d="M737.7,676.3c0,0,0.6-13,13.4-11.5" class="st4"/><path d="M712.5,676.3c0,0,0.6-13,13.4-11.5" class="st4"/><path d="M660.5,676.3c0,0-0.6-13-13.4-11.5" class="st4"/><path d="M453.4,676.3c0,0-0.6-13-13.4-11.5" class="st4"/><path d="M281.5,676.3c0,0-0.6-13-13.4-11.5" class="st4"/><path d="M98.7,676.3c0,0-0.6-13-13.4-11.5" class="st4"/><path d="M791.9,676.3c0,0-0.6-13-13.4-11.5" class="st4"/><path d="M714.5,677.2c0,0-0.6-13-13.4-11.5" class="st4"/><rect width="888" height="2" y="674.6" class="st4"/></svg>