<svg xmlns="http://www.w3.org/2000/svg" width="906.974" height="1034.472" viewBox="0 0 906.974 1034.472"><defs><style>.a{opacity:0.075;}.b{fill:#fff;}</style></defs><g class="a" transform="matrix(0.875, 0.485, -0.485, 0.875, -453.459, -123.569)"><path class="b" d="M590.191,672.469V450.158a73.48,73.48,0,1,0-48.487,0h0V672.469h0a73.464,73.464,0,1,0,48.487,0ZM540.932,380.82a25.008,25.008,0,1,1,25.008,25.009A25.009,25.009,0,0,1,540.932,380.82ZM565.94,766.8a24.993,24.993,0,1,1,25.008-25A24.994,24.994,0,0,1,565.94,766.8Z" transform="translate(531.871 -140.497)"/><path class="b" d="M878.78,693.3V417.242A154.937,154.937,0,0,0,751.541,265.011a155.492,155.492,0,1,0-220.61,0A154.92,154.92,0,0,0,403.709,417.242V693.3a73.449,73.449,0,1,0,48.456,0V417.242A106.34,106.34,0,0,1,558.382,311.025H724.091A106.325,106.325,0,0,1,830.308,417.242V693.3a73.434,73.434,0,1,0,48.471,0ZM452.922,762.618a24.993,24.993,0,1,1-24.993-24.993A24.993,24.993,0,0,1,452.922,762.618ZM641.229,262.569A107.036,107.036,0,1,1,748.28,155.523,107.033,107.033,0,0,1,641.229,262.569Zm213.3,525.042a24.993,24.993,0,1,1,24.978-24.988,24.994,24.994,0,0,1-24.978,24.988Z" transform="translate(456.582 -308.222)"/></g></svg>