<svg xmlns="http://www.w3.org/2000/svg" width="27.08" height="26.765" viewBox="0 0 27.08 26.765"><defs><style>.a{fill:#ffbc1e;}.b{fill:#81d0d3;}</style></defs><g transform="matrix(0.966, 0.259, -0.259, 0.966, -1480.703, -634.225)"><g transform="translate(1600.036 227.87)"><path class="a" d="M259.309,222.711a10.9,10.9,0,1,0-13.888,13.89v.061a10.995,10.995,0,0,0,7.192,0V236.6A10.9,10.9,0,0,0,259.309,222.711Zm-10.293,7.306a3.71,3.71,0,1,1,3.709-3.711A3.7,3.7,0,0,1,249.016,230.017Z" transform="translate(-238.112 -215.402)"/></g><path class="b" d="M0,0H25.575L13.128,12.576,0,27.08Z" transform="matrix(-0.259, -0.966, 0.966, -0.259, 1601.172, 254.658)"/></g></svg>